<?xml version="1.0" encoding="UTF-8"?>
<svg id="Capa_2" data-name="Capa 2" xmlns="http://www.w3.org/2000/svg" viewBox="0 0 695.02 739.79">
  <defs>
    <style>
      .cls-1 {
        fill: #0e0c0c;
      }

      .cls-2 {
        fill: #fbfbfa;
      }

      .cls-3 {
        fill: #e75d49;
      }

      .cls-4 {
        fill: #e1a42c;
      }

      .cls-5 {
        fill: #ee7e67;
      }

      .cls-6 {
        fill: #f5bbae;
      }
    </style>
  </defs>
  <g id="Capa_1-2" data-name="Capa 1">
    <g>
      <path class="cls-4" d="M212.92,220.01c-2.08,3.1-7.33,2.59-10.77,3.71-10.08,3.26-12.23,4.02-15.49,14.5-.72,2.31-3.08,16.79-4.22,16.76-5.25-11.78-1.44-24.7-15.95-30.01-2.93-1.07-13.97-2.48-14.53-2.97-1.29-1.13.19-1.79,1.25-2.24,5.88-2.49,15.76-1.87,20.76-7.23,5.32-5.7,4.87-18.75,8.48-25.52,2.91,7.29,3.2,20.25,9.07,25.92,4.99,4.82,14.97,5.27,21.41,7.09ZM198.93,220.01c-9.87-1.46-14.47-10.12-16.49-19.02-1.75,9.26-6.11,17.93-16.49,19.02,1.73,2.63,5.29,2.69,7.93,4.56,5,3.54,6.69,9.96,8.56,15.44,2.01-6.06,2.9-11.57,8.56-15.44,1.24-.85,8.7-3.56,7.93-4.55Z"/>
      <path class="cls-4" d="M53.04,301.01c1.21,1.24-.13,1.77-1.24,2.24-4.18,1.75-14.07,2.43-17.2,5.79-4.9,5.27-5.67,21.96-6.54,22.96-1.14,1.3-1.79-.2-2.24-1.25-1.34-3.16-1.41-7.96-2.47-11.53-3.17-10.64-4.35-11.21-14.51-14.48-2.22-.71-12.62-1.98-7.37-3.85s13.35-1.8,17.62-6.37c4.7-5.02,5.27-16.07,6.98-22.52,1.55.17,1.54,1.47,1.89,2.59,2.43,7.7,1.53,18.16,10.53,22.46,2.63,1.26,13.94,3.36,14.54,3.96ZM41.05,301.01c-.31-.32-7.04-1.18-8.04-3.47l-6.94-11.54c.23,3.34-2.25,8.64-4.58,10.92-2.07,2.02-4.98,2.43-7.13,3.83-4.27,2.78,5.39,2.98,7.11,6.34l5.58,10.9c1.16-5.45,3.39-10.26,8.3-13.2,1.43-.86,7.52-1.93,5.71-3.78Z"/>
      <path class="cls-4" d="M245.89,331.99c.57.74,1.3,13.67,4.52,17.98s10.99,4.47,15.19,6.78c4.81,2.65-7.12,3.73-9.7,4.76-9.82,3.9-7.18,11.86-10.05,19.94-.38,1.07-.48,2.39-1.95,2.54-2.03-6.55-2.07-18.16-8.74-21.76-3.9-2.11-10.33-1.89-13.25-5.22,20.8-2.45,16.6-8.85,21.87-23.62.36-1.02.75-3.14,2.1-1.39ZM256.89,357.01c-7.97-.16-8.98-8.06-12.98-13.01.17,7.12-4.83,11.17-11,13.49,6.86,2.72,9.83,6.3,11.49,13.51,1.84-2.83,2.54-6.54,4.95-9.06,2.56-2.68,5.65-2.2,7.54-4.94Z"/>
      <path class="cls-4" d="M107,221.01c-4,3.92-12.41,2.39-16.68,6.3-3.53,3.22-5.5,19.67-6.8,19.67-4.27-8.96-.56-17.29-11.24-21.73-2.82-1.17-11.2-2-11.26-4.74,4.53-1.22,13.14-1.96,16.44-5.56,4.1-4.47,3.21-13.73,6.05-18.96,3.37,15.72,5.95,23.23,23.48,25.02ZM95,221.01c-6.64-1.08-8.43-7.44-11.97-12.01-.88,6.9-4.88,10.15-11.01,12.5,6.56,2.21,9.32,6.15,11.5,12.51.48,0,3.15-7.12,4.47-8.53,2.12-2.27,5.47-2.2,7.01-4.46Z"/>
      <path class="cls-6" d="M83.02,429c2.43,2.42-7.46,3.52-8.55,3.93-10.12,3.8-7.14,16.68-9.95,18.05-2.04,1-1.34-1.71-1.5-2.46-2.77-13.06-4.73-16.07-18.97-17.55,2.45-3.46,7.96-2.82,11.69-4.79,7.28-3.85,4.84-12.19,8.8-18.2,1.48,6.92,1.8,15.59,9.2,18.78,1.98.85,8.94,1.88,9.28,2.22ZM72.02,429.01c-.85-1.11-7.48-3.64-7.48-8.01-2.38,4.28-4.77,6.89-8.5,9.98,5.46.22,5.57,5.31,8.98,8.01.1-1.75.94-3.17,2-4.5,1.54-1.92,6.17-3.95,5-5.48Z"/>
      <path class="cls-4" d="M123.98,455.99c.15,11.44,5.06,18.89,16.99,19.5-2.95,2.74-10.02,2.07-12.71,4.78s-2.95,9.92-4.16,13.34c-.36,1.01-.69,3.06-2.1,1.39-.54-.64-1.18-11.17-3.53-13.97s-12.43-4.19-12.44-5.53c2.56-2.47,6.65-1.8,9.69-3.28,5.11-2.51,5.18-9.85,6.29-14.72.36-1.56-.66-1.74,1.98-1.5ZM122,483.99l8.96-8.5c-3.06-2.36-6.59-4.13-6.99-8.5-3.41,2.73-3.5,7.74-8.97,8.01.67,1.97,3.52,1.94,5.01,3.75,1.17,1.42,1.96,3.38,1.99,5.24Z"/>
      <path class="cls-6" d="M140.97,156.99c.15,11.97,3.88,11.98,12.59,15.9.88.4,3.1.44,1.4,2.09-.36.35-6.91.7-9.53,2.98-3.99,3.47-2.58,10.04-6.45,13.03-.59-5.31-1.07-11.49-6.31-14.2-2.89-1.5-7.08-1.02-8.69-3.79,13.18-1.61,11.85-3.98,14.96-14.55.43-1.46-.57-1.75,2.02-1.47ZM145.96,174.98c-.1-3.32-5.26-3.57-5-7.98-1,2.55-6.47,5.41-6.98,6.02-1.39,1.65,2.47,2.82,3.58,3.91,1.3,1.28,1.33,4.78,3.49,2.43,1.23-1.34,1.71-4.43,4.91-4.38Z"/>
      <path class="cls-6" d="M228.9,246.99c.21.28-.18,2.95.24,4.25,3.03,9.25,5.92,8.83,14.74,11.25-3.71,2.41-8.37,1.67-11.55,5.44s-1.62,9.38-5.42,12.07c-.45-5.52-1.56-11.96-7-14.51-1.18-.55-9.12-1.51-7.01-3.48,2.19-2.05,8.5,1.06,12.19-7.31.42-.94,1.92-10.23,3.8-7.7ZM228.89,257c-1.87-1.61-3.84,5.8-6.98,5.01l5.01,6.98,6.96-6.5c-2.8-.59-4.52-5.08-5-5.49Z"/>
      <path class="cls-4" d="M254.88,195.99c-3.08-.16-8.29.76-10.54,2.95-3.35,3.27-1.65,10.31-5.43,13.05-1.18-3.8-1.21-9.51-3.97-12.53-3-3.29-7.87-2.31-11.01-4.97,0-1.36,9.44-2.39,11.47-4.51,2.23-2.33,2.16-9.98,4-12.99,3.55,6.5.65,11.76,8.77,15.22,2.54,1.08,6.95-.03,6.72,3.77ZM242.2,191.7c-1.17-1.28-1.06-4.17-3.29-4.7.26,4.2-3.36,5.2-5.99,7.5,2.77,2.13,5.74,3.51,5.99,7.5.71.56,5.28-7.78,7.98-7.01-.35-1.87-3.44-1.91-4.69-3.28Z"/>
      <path class="cls-4" d="M59.02,356c1.68,1.71.2,9.65,6.27,12.24,2.2.94,6.68.14,6.75,3.25-9.68.24-11.48,6.42-13.49,14.51-2.72-2.74-1.65-8.21-4.02-10.98-2.59-3.02-8.32-1.64-10.47-5.01,11.3-1.95,11.21-2.07,13.02-12.5.22-1.29.34-3.15,1.95-1.51ZM64.03,370.01c-2.62.68-4.74-5-5.5-5-.54,0-3.45,5.67-5.49,5.48.89,1.1,2.59,1.51,3.45,2.55,1.16,1.41.89,3.84,2.53,3.95-.55-4.07,3.27-4.3,5.01-6.98Z"/>
      <path class="cls-6" d="M47.76,257.28c-1.63-1.62-8.69-2.43-8.69-3.78l8.69-3.78,4.27-10.71c1.18,9.14,3.72,11.36,11.98,14.49-2.86,2.28-5.69,1.39-8.51,4.46-3,3.26-1.53,6.03-3.96,9.02-1.5,0-1.82-7.75-3.78-9.7ZM56.04,253.97c.24-.33-4.16-4.97-4.5-4.96-.32,0-2.87,4.25-4.48,4.48l4.48,4.48c1.44-1.48,2.02-3.98,4.49-4Z"/>
      <path class="cls-6" d="M249.17,293.72c2.01,1.97,7.86,1.41,7.71,5.27-2.02-.12-6.44.87-7.73,2.26-2.11,2.28-1.1,8.2-4.25,9.74-.94-2.77-1.17-7.3-2.97-9.54-2.44-3.03-7.04-1.65-9.02-4.45,8.38-.88,11.49-4.64,11.99-13.01,3.09,1.69,1.71,7.22,4.26,9.72ZM244.92,301.99l4.95-4.5-4.48-4.5c-.6,1.88-3.55,3.85-3.52,5.49.01.57,3.69,1.48,3.04,3.51Z"/>
      <path class="cls-2" d="M198.93,220.01c.77,1-6.69,3.71-7.93,4.55-5.66,3.88-6.55,9.39-8.56,15.44-1.88-5.48-3.56-11.91-8.56-15.44-2.64-1.87-6.2-1.93-7.93-4.56,10.38-1.09,14.73-9.76,16.49-19.02,2.02,8.9,6.62,17.56,16.49,19.02Z"/>
      <path class="cls-2" d="M41.05,301.01c1.81,1.85-4.27,2.92-5.71,3.78-4.9,2.94-7.13,7.75-8.3,13.2l-5.58-10.9c-1.72-3.35-11.38-3.56-7.11-6.34,2.15-1.4,5.07-1.82,7.13-3.83,2.33-2.28,4.81-7.58,4.58-10.92l6.94,11.54c1,2.28,7.73,3.15,8.04,3.47Z"/>
      <path class="cls-2" d="M256.89,357.01c-1.89,2.74-4.98,2.27-7.54,4.94-2.41,2.52-3.11,6.23-4.95,9.06-1.66-7.21-4.63-10.79-11.49-13.51,6.17-2.33,11.17-6.38,11-13.49,4,4.95,5.01,12.85,12.98,13.01Z"/>
      <path class="cls-2" d="M95,221.01c-1.54,2.26-4.89,2.19-7.01,4.46-1.33,1.42-3.99,8.53-4.47,8.53-2.18-6.36-4.94-10.3-11.5-12.51,6.13-2.35,10.14-5.6,11.01-12.5,3.55,4.57,5.33,10.93,11.97,12.01Z"/>
      <path class="cls-2" d="M72.02,429.01c1.17,1.53-3.46,3.56-5,5.48-1.07,1.33-1.9,2.75-2,4.5-3.41-2.7-3.52-7.79-8.98-8.01,3.73-3.09,6.11-5.71,8.5-9.98,0,4.38,6.63,6.91,7.48,8.01Z"/>
      <path class="cls-2" d="M122,483.99c-.03-1.86-.82-3.82-1.99-5.24-1.49-1.81-4.34-1.78-5.01-3.75,5.47-.27,5.56-5.28,8.97-8.01.39,4.37,3.93,6.13,6.99,8.5l-8.96,8.5Z"/>
      <path class="cls-2" d="M145.96,174.98c-3.2-.04-3.67,3.05-4.91,4.38-2.17,2.35-2.19-1.15-3.49-2.43-1.11-1.09-4.97-2.26-3.58-3.91.51-.61,5.98-3.47,6.98-6.02-.26,4.41,4.9,4.66,5,7.98Z"/>
      <path class="cls-2" d="M228.89,257c.48.41,2.2,4.91,5,5.49l-6.96,6.5-5.01-6.98c3.13.79,5.11-6.62,6.98-5.01Z"/>
      <path class="cls-2" d="M242.2,191.7c1.25,1.37,4.34,1.41,4.69,3.28-2.7-.77-7.26,7.57-7.98,7.01-.25-3.98-3.22-5.37-5.99-7.5,2.63-2.3,6.25-3.3,5.99-7.5,2.23.54,2.12,3.43,3.29,4.7Z"/>
      <path class="cls-2" d="M64.03,370.01c-1.74,2.68-5.55,2.91-5.01,6.98-1.64-.11-1.37-2.54-2.53-3.95-.86-1.04-2.56-1.45-3.45-2.55,2.04.19,4.95-5.48,5.49-5.48.76,0,2.87,5.67,5.5,5Z"/>
      <path class="cls-2" d="M56.04,253.97c-2.48.03-3.06,2.53-4.49,4l-4.48-4.48c1.61-.23,4.16-4.47,4.48-4.48.33,0,4.74,4.63,4.5,4.96Z"/>
      <path class="cls-2" d="M244.92,301.99c.64-2.03-3.03-2.93-3.04-3.51-.03-1.64,2.92-3.6,3.52-5.49l4.48,4.5-4.95,4.5Z"/>
      <g>
        <path class="cls-1" d="M256.89,469c-15.13-1.18-30.02-6.48-43.65-12.82-2.97-1.38-5.55-4.58-9.31-4.17,10.04,28.98,22.18,57.42,33.51,85.98,1.25,10.77-14.35,17.7-21.55,9.54-2.17-2.46-1.8-6.3-4.45-8.4-10.2,4.2-20.4,9.18-31.01,11.97-4.39.33-9.85-15.29-8.83-17.83s11.24-5.25,14.07-7.01c1.04-.65,1.75.05,1.27-2.25-3.41.23-4.26,2.22-6.21-1.29-2.66-4.77-3.48-7.72,1.22-10.71-4.59-.71-14.57,6.2-17.99,4.52-1.63-.8-7.2-14.11-7.03-15.99.61-6.42,28.04-12.19,32.93-17.14-2.02-3.09-8.86-24.55-9.95-25.39-.26-.2-4.04,1.2-6.47,1.06-9.44-.54-22.21-4.17-24.23-14.8-.48-2.5.26-5.62-.39-7.61-.83-2.5-8.2-4.36-9.75-13.24-1.12-6.42-.62-5.26-2.85-11.15-3.44-9.06-1.99-12.65,1.76-21.26-19.61,3.32-42.77-3.21-55.98-18.48-15.45-17.86-17.66-46.15-1-64.05,1.64-1.76,7.7-5.76,7.92-7.12.16-.95-4.25-5.85-2.68-12.65,1.47-6.4,9.3-7.12,10.35-8.65.41-.59-1.58-7.15-1.5-9.41.8-23.59,28.82-32.5,44.36-13.6.9,1.09,1.34,3.62,1.65,3.84.79.58,10.89-2.56,16.41,1.07,4.88,3.21,3.03,10.61,3.45,11.04.54.55,12.66-.22,15.39.1,31.89,3.72,46.34,41.33,35.08,68.9-7.18,17.58-19.58,26.27-34.84,36.13-4.15,2.68,4.96,4.1,5.3,3.84.17-.13.68-2.73,1.6-3.93,3.72-4.83,8-5.62,13.95-5.05,11.06,1.04,14.68,11.42,19.12,19.87,7.89-.15,15.91-1.66,23.84-.86,3.84.39,8.89,3.06,11.91,2.94,1.06-.04,16.49-5.26,17.07-5.95,1.81-2.15,1.05-6.57,5.21-8.79,9.52-5.06,29.57-4.95,40.22-9.75,4.4-4.3,4.59-12.59,12.03-13.47-16.64-12.77-30.21-27.21-38.83-46.63-15.88-35.78-15.85-96.23-4.64-133.36,1.28-4.22,7.01-16.31,7.24-18.65.26-2.54-2.32-5.53-1.52-10.6,1.45-9.19,8.29-8.9,11.8-13.21.44-.54,4.69-9.65,4.74-10.21.1-1.2-6.56-11.69-7.8-14.81-21.65-54.21,32.44-86.52,79.47-89.51,52.97-3.37,89.65,22.53,141.69-9.2,5.42-3.31,9.85-8.16,15.68-10.8,1.14,1.27-5.83,10.2-7.01,11.48-44.73,48.06-108.18,12.83-162.91,22.97-24.4,4.52-48.42,16.7-56.08,41.88-3.76,12.35-.77,26.52,6.15,37.24.37.54.78.39,1.32.31.6-.09,10.04-4.2,11.22-4.85,4.83-2.64,10.29-8.16,15.54-11.45,22.71-14.25,50.7-19.36,77.35-17.57,5.76.39,18.06,4.11,22.04,3.9.87-.05,12.87-6.01,15.91-6.94,41-12.6,71.71,5.5,110.45,7.03,4.57,1.56,11.93,1.38,16.99,1,31.42-2.33,56.76-17.59,79.95-37.49,1.67-1.43,7.27-9.31,8.98-5.01.3.77-1.42.14-1.96,1.23-14.17,28.37-52.19,51.39-83.97,53.27-5.36.32-11.57.15-16.99,0-33.21-.9-66.26-16.2-100.1-8.67-.91.2-6.85.49-4.81,2.65.64.68,14.07,5.88,17,7.49,20.05,11.04,39.54,27.33,53.35,45.61,5.5,7.28,9.59,15.61,15.08,22.89,6.25-11.46,16.67-20.28,28.78-25.17,3.35-1.35,12.51-4.89,15.25-2.89,3.54,2.59,2.48,16.72,1.43,21.07,5.4-.69,35.34-5.16,37.51-2.04,3.54,5.11-3.77,22.45-6.86,27.25-2.72,4.22-10.83,11.22-14.92,14.09-1.01.71-4.46,1.53-4.64,1.82-1.99,3.14,1.86,2.88,3.57,3.68,5.37,2.51,10.15,5.1,15.8,7.23,2.71,1.02,14.4,3.27,14.41,5.48.01,2.07-11.14,11.86-13.73,13.39-19.31,11.42-38.98,10.12-58.12-.88.48,6.17,2.5,12.31,2.78,18.5.5,10.94-1.07,27.58-4.75,37.96-1.22,3.44-5.98,11.53-5.77,13.89.06.71,2.76,7.15,3.23,7.65,1.84,1.92,5.42,1.04,7.96,4.03.93,1.09,8.07,15.4,8.33,16.72,1.19,6-3.87,6.84-3.9,10.73,2.49,9.24,5.15,18.89,6.81,28.29.67,3.79,1.71,21.63,2.48,23.02.32.57,8.37,5.95,10.3,8.18,1.56,1.81,2.28,4.85,2.49,5.03.46.37,8.75-4.43,10.97-4.02.82-1.18-3.91-8.51-4.75-10.72-3.2-8.42-4.22-17.64-3.13-26.65,1.23-10.14,16.34-35.48,28.1-25.62,8.47,7.1-1.02,21.2,2.24,27.04.94,1.67,1.76.28,2.81-.24,4.52-2.25,11.22-9.53,10.09-14.84-.93-4.38-13.37-7.62-14.37-19.45-1.19-13.93,7.52-13.25,18-11.01,16.14,3.45,33.59,10.56,38.24,27.73,2.11,7.8,2.84,14.52,5.18,22.8,6.2,21.88-18.06,44.34-35.94,52.98-10.54,34.07-34.77,79.45-77.45,72-.51,2.45.73,5.08.62,7.33-.27,5.59-4.57,18.64-7.02,23.8-3.4,7.14-3.53,3.34-5.03,12.92-5,32.02-20.2,61.32-47.65,79.32-2.46,1.61-6.41,2.63-8.49,4.04-2.58,1.74-4.42,7.45-6.35,9.84-12.75,15.68-37.65,28.09-56.97,33.25-8.76,2.34-17.92,3.94-26.98,4.51,1.07,4.07-1.84,10.91-3.5,14.98-9.65,23.55-43.96,65.45-72.73,53.8-7.26-2.94-10.55-11.65-11.37-11.85-2.47-.61-8.15,1.27-11.85,1.1-16.48-.73-23.8-14.21-17.46-29.04-8.13.29-15.1,1.31-23.22-.27-17-3.29-25.64-14.17-16.75-30.73-22.56-8.39-43.54-35.51-7.2-43.72,32.13-7.25,62.36,6.69,94.13,8.7-1.71-7.83-.08-16.94,3.27-24.23.99-2.16,5.68-8.22,5.71-9.24.05-1.74-4.45-9.81-4.87-14.14-.48-4.88,1.03-8.67.88-13.39l-16.65,10.33c-4.78,7.76-11.59,24.28-17.61,30.37-4.1,4.15-8.07,4.53-8.7-2.18-.84-9.01,5.32-36.42,11.33-43.18,5.46-6.13,18.77-12.3,23.62-17.87.79-.91,1.37-1.37.87-2.72-2.17-3.34-.54-7.82-6.06-4.66-4.64,2.66-10.44,7.21-15.04,10.2-1.58,1.03-4.68,1.25-5.5,1.96-3.91,3.32-13.39,21.79-18.55,27.44-2.46,2.7-10.2,10.24-11.64,2.79-1.31-6.82,6.23-31.51,9.78-38.15,5.3-9.91,20.42-16.88,29.16-23.81-1.22-1.69-2.37-1.57-4.23-1.33-1.75.23-22.59,6.25-23.53,7.04-.3.25-.8,2.76-1.56,3.92-4.11,6.34-10.14,16.02-15,21.51-3.13,3.53-9.49,9.1-10.54.8-1.09-8.62,6.97-38.54,13.95-43.89,4.6-3.53,18.67-7.19,20.97-10.02,1.12-1.38,9.05-29.4,7.95-30.53-8.14,2.71-16.41,6.09-24.92,7.55-9.3,1.6-13.55,2.68-20.08-5.06-.74-.87-.73-2.23-.96-2.5-1.45-1.72-15.07-1.56-17.99,0ZM509.7,20c-4.05,1.88-9.89,3.91-14.23,5.26-8.19,2.56-16.25,4.36-24.74,4.74-5.71.26-12.26.23-17.99,0-13.44-.53-25.74-4.12-38.97-5-2.31-.15-4.68.07-6.99,0-.33,0-.67,0-1,0-13.86-3.47-30.92-2.08-45.02.45-39.51,7.1-77.2,38.94-59.9,82.55.62,1.55,5.54,11.54,6.11,11.87,1.38.8,3.74-.54,4.4-1.89,1.69-3.42-3.3-9.72-4.56-13.45-17.09-50.66,38.46-75.05,79.49-76.53,19.23-.69,38.45,4.38,57.45,4.99,2.63,1.84,7.54.98,10.99,1,2.99.01,6,.02,8.99,0,3.46-.02,8.36.84,10.99-1,13.29-.81,24.66-5.04,35.97-12,2.76-1.7,5.81-2.93,7.97-5.51-3.47-.24-6.4,3.31-8.97,4.51ZM651.59,63c-43.42,31.14-71.18,27.09-120.91,18-27.42-5.01-54.14-9.69-80.62,2.82-7.74,3.66-26.91,17.59-29.26,25.74-.66,2.29,1.09,1.12,1.95,1.44,7.95,2.97,7.65-3.27,12.5-7.99,42.97-41.93,104.68-5.05,154.86-9.02,23.34-1.85,45.77-14.24,62.47-29.98,2.29-2.16,4.97-4,6.97-6.51-3.16.55-5.71,3.88-7.97,5.51ZM428.76,94c2-1.96,5.12-3.24,6.97-5.5-.01-1.73-15.83-3.4-18.42-3.54-26.38-1.46-56.79,5.16-77.48,22.03,7.31-.49,14.66-1.72,21.98-1.99,18.21-.68,36.48,1.67,54.37,4.82,4.21-5.21,7.78-11.1,12.58-15.82ZM449.74,97c-7.08,4.2-15.02,8.76-17.98,16.99,40.86,9.95,78.73,30.26,112.43,54.99,1.38.3,1.88-.06,1.47-1.47-.57-1.96-4.56-7.82-5.96-10.04-4.95-7.87-10.71-14.68-17.01-21.48-12.24-13.22-25.02-23.82-40.95-32.52-5.66-3.09-21.37-11.47-27.01-10.03-2.72.69-3.65,2.76-4.98,3.55ZM545.67,189c.5.21,1.76.08,2.92.54,2.11.83,13.41,10,14.06,9.46,2.85-11.37-14.81-22.13-23.25-28.22-56.22-40.57-136.71-71.91-206.77-57.48-8.61,1.77-17.02,4.05-22.21,11.77-3.59,5.34-1.19,8.26-2.01,9.93-1.97,4.04-17.88,7.83-14.54,18,50.66-14.65,106.67-10.12,156.87,4.51,7.73,2.25,15.24,5.35,22.99,7.5.3,1.09,1.32.75,2,1,.3.11.72-.11,1,0,.07.03.3.78,1,1,.29.09.68-.08,1,0,.11.03.61.64,2,1,.31.08.69-.09,1,0,24.4,10.5,47.92,22.8,70.26,37.19,3.1,1.99,9.45,7.72,12.2,8.8s1.52-5.82.54-7.54c-2.16-3.78-13.79-12.4-18.04-14.45-.66-.89-.69-1.99-1-3-1.5-.63-3.37-.74-5.67-1.83-1.39-.66-4.93-2.04-4.31-4.16,2.2.78,7.85,2.71,9.36,3.92,1.11.88.42,1.41.62,2.08ZM593.64,150c-.05-1.27-.08-6.89-1.58-7.03-12.09,3.33-24.11,9.99-31.81,20.12-1.39,1.83-5.53,8.32-5.36,10.25.16,1.77,1.79,5.59,4.18,4.58s8.72-14.86,14.58-13.91c-4.03,4.86-8.93,9.13-11.31,15.19-.34.86-1.55,3.08.31,2.8,6.74-9.08,17.87-15.12,28.4-19.08,3.19-2.36,2.74-9.33,2.59-12.91ZM309.85,154c-14.17,3.22-13.67,4-18.73,17.75-12.28,33.36-12.77,80.8-4.76,115.26,5.41,23.27,17.78,45.29,37.48,58.99,39.69,34.12,131.92,13.39,175.87-6,.45-.2.75-.89,1-1,.28-.12.72.13,1,0,44.47-20.36,72.13-44.98,64.82-98.37-.6-4.37-3.83-20.97-5.82-23.92-.75-1.11-8.11-5.42-10.04-6.71-66.32-44.39-161.1-74.09-240.82-56ZM629.61,170c.8-2.62,2.04-5.16,2-8h-19.49c-12.01,0-34.67,11.13-43.48,19.49-6.71,6.37-1.79,5.38-.98,13.51,9.53-6.35,20.14-12.15,31.96-11.99l-16.2,6.28-3.78,2.71c-3.55.78-13.35,7.37-11.99,12h19.49c2.1,0,11.87-3.46,14.47-4.52,14.27-5.76,23.47-14.7,28-29.48ZM630.61,218c-4.39-2.88-9.62-3.96-14.35-6.14-3.2-1.48-9.2-5.69-11.59-6.41-4.3-1.3-15.87,2.83-21.66,3.42-2.32.24-11.94-.31-12.37.13-.19.2-.33,2.31.63,3.07,7.1,5.58,19.53,8.47,28.35,9.93-7.87,1.16-11.11,1.53-18.97-1.51-2.53-.98-9.09-5.58-10.49-5.5-.26.01-2.23,4.46-2.27,4.72-.99,6.52,23.84,13.85,29.25,14.28,14.83,1.18,27.74-4.69,38.45-14.49,1.15-2.27-4.77-1.65-4.99-1.49ZM102.88,283.08c5.56,8.13,16.12,11.15,25.13,7.17s13.9-13.82,11.64-23.41c-1.88-7.99-8.36-14.09-16.45-15.47s-16.22,2.21-20.65,9.12c-4.43,6.91-4.3,15.81.33,22.59ZM143.97,266c-3.06,3.45,2.84,4.1,3.48,4.98,1.05,1.44.23,5.17,3.21,5.89,1.45.35,6.13-1.81,6.87-2.88,1.23-1.79-.51-2.59-.57-3-.21-1.27.26-2.48-.5-3.96-1.9-3.7-9.8-4.07-12.49-1.04ZM144.95,276c-1.88-1.86-1.3-.35-1.68.97-.77,2.65-1.57,5.34-2.29,8.01l5.98-4.56c-.52-.77-1.8-4.22-2.01-4.43ZM151.96,282c-19.54,12.48-19.88,42.43,3.75,45.77,11.31,1.6,23.86-7.69,20.24-19.77-1.51-5.04-4.37-7.32-9.99-6-5.16,1.21-3.93,11.79,3,10.01-2.61,13.37-20.45,9.49-23.52-1.97-4.98-18.63,16.54-28.36,32.48-23.51,23.39,7.12,29.21,35.59,18.87,55.83-4.9,9.59-16.38,22.77-26.84,25.65,2.91,9.21,6.75,5.55,12.9,1.4,12.49-8.44,27.62-26.64,27.07-42.41,7.44-31.77-28.67-63.7-57.96-45ZM92.01,297c2.26,2.26,3.17,2.97,6.76,1.26,4.87-2.32.93-6.12.52-8.89-.39-2.62,2.73-4.45-1.28-4.37-6.49.13-10.96,7.04-6,12ZM131.99,307.99c1.57,1.08,2.13-8.81,2.47-10.02.91-3.27,2.87-5.74,3.5-8.97-5.65,4.14-12.64,7.53-19.97,8.01l10.48,5.99,3.52,5ZM197.93,321.99c-.06-18.06-18.38-38.15-37.19-31.72-2.2.75-9.26,6.82-10.22,8.77-3.03,6.25-.93,15.58,6.42,17.53,7.48,1.99,1.22-6.1,1.08-9.17-.38-8.33,7.49-10.53,14.37-9.36,6.48,1.11,8.71,8.7,8.64,14.44-.04,3.82-2.14,5.28-1.08,8.5,5.78-4.77,11.92-.65,17.97,1ZM95.01,377c7.88,8.86,29.15,10.93,40.45,9.98,1.47-.12,11.05-1.61,11.46-2.03.49-.51-.21-5.51.05-6.96-31.54,6.57-68.77-8.89-63.86-46.41,1.98-15.15,19.75-28.21,34.58-21.77,15.68,6.8,11.03,31.58-6.68,26.18-.38-.55,4.82-10.08-3-10.99s-9.08,9.84-4.67,14.7c.42.46,1.51.16,1.67.3.76.66,1.04,2.09,2.6,2.87,18.64,9.31,37.32-18.08,20.87-34.86-5.48-5.59-12.11-6.63-19.47-7.01-12.33-.64-23.26,6.05-29.51,16.97-11.86,20.69-4.27,46.85,15.52,59.03ZM471.73,358c-1.84,3.32-2.59,6.37-3.51,10-.28,1.11-1.17,1.53.99.98,16.89-4.23,51.85-21.79,67.47-30.98,4.53-2.67,24.97-15.52,26.51-19.04.77-1.76-3.15-13.67-4.46-15.34-1.89-2.41-2.28,1.13-3.5,2.41-22.01,22.98-50.43,37.62-80.45,47.53-1.74,1.01-2.17,2.86-3.05,4.45ZM120.68,330.67c5.77-5.02.82-15.96-6.42-17.44-12.41-2.55-22.23,5.18-26.34,16.27-.51,1.39-1.98,8.61-1.94,9.94.13,4.62,5.23,19.81,9.54,21.55,2.45-.03,1.31-3.85,2.61-6.37,1.61-3.13,6.07-6.68,9.87-5.63-2.39-2.93-6.08-3.68-8.54-6.95-6.69-8.89-2.87-22.91,9.58-20.59,9.22,1.71,5.74,14.35,11.64,9.22ZM570.63,315c-1.79-1.57-1.65.38-1.99,1.47-3.53,11.52-30.02,26.24-40.94,32.05-34.35,18.25-71.75,29.7-108.3,42.62-11.04,12.19-20.61,25.6-29.6,39.37,10.76-4.1,20.32-11.97,31.86-14.6-.31-3.72-2.19-21.27.13-22.89,2.87-2,13.3,9.69,15.46,11.96,2.72,2.85,9.54,13.23,12.89,13.03,40.05-19.38,81.7-43.17,114.52-73.5,2.34-2.16,10.9-10.02,12.05-11.98,1.67-2.83-4.27-15.94-6.09-17.53ZM172.95,349c5.28,16.6-18.14,15.4-14.76-1.28,1.46-7.2,9.91-9.17,16.24-8.71s11.16,4.16,17.23.21c7.3-4.75,4.69-16.43-4.37-16.93-5.77-.32-8.65,7.01-4.36,9.22s3.59-3.1,4.03-3.53c1.75-1.71,5.94,4.77.26,7.78-5.81,3.07-16.9-4.3-26.6,1.37-14.36,8.39-6.74,31.66,9.38,27.38,7.75-2.06,12.84-13.97,2.97-15.52ZM637.6,326c-2.49,8.93,9.87,14.39,14.49,20,8.54-18.57,24.53-2.68,32.98,7,1.53-2.41-.46-5.05-1.5-6.99-1.52-9.4-11.43-14.66-19.31-18.17-5.9-2.63-24.21-10.59-26.65-1.83ZM158.95,332l-8.97-1.53-12.01-7.47c.27,4.14.09,7.36-1.21,11.28-1.6,4.81-5.21,5.59-6.78,9.71,6.91-.3,13.79-.15,18.97,5,.27-8.03,4.53-10.38,9.36-14.91.86-.8.9-.71.64-2.08ZM176.94,325l-7.98,4.49,7.98,2.5v-6.99ZM616.62,396c1.33,3.31,3.91,4.24,4,8-4.26-1.98-9.06.54-13.26,2.23-14.44,5.84-23.2,14.26-26.71,29.77-.45,1.97,1.47,5.79-1.99,5-1.17-9.89,2.24-16.9,6.99-25,.49-.83,3.99-1.48.56-4.05-2.38-1.79-2.72-.94-4.56.05-4.36,2.36-11.94,13.37-14.51,17.98-5.36,9.61-7.6,18.28-9.47,29.02-1.05,6.05-2.72,12.03-2.02,18.29,48.91,34.05,83.11-11.34,96.93-54.81l-3.99-2.49c1.7-1.19,7.01-2.32,9.68-3.81,13.95-7.8,28.39-20.73,31.29-37.19.25-1.4,1.09-2.04.94-4.34-.46-7.23-6.98-16.98-11.91-22.19-4.68-4.93-16-15.9-21.01-6.48-6.14,11.55,2.6,27.68,7.99,37.99-10.68-2.58-3.95-12.46-17.67-7.18s-17.07,16.95-16.8,31.18c-6.11-8.63-1.11-23.76,6.49-29.99,4.25-3.48,11.52-5.73,16.98-5.01-1.57-4.32-2.06-11.1-3.48-15.01-.86-2.39-1.08-.82-1.77.24-4.51,6.9-9.28,8.58-13.73,14.77-.24-.39-.75-.66-1-1l-1-1c-2.11-2.86-5.36-5.04-5.81-8.76-.76-6.32,4.98-11.72,1.81-19.24-3.64-8.65-13.54,3.69-16.18,8.31-7.79,13.62-6.15,32.36,3.19,44.69ZM574.65,346c-.29-1.05.93-5.03-1.49-3.99-26.64,24.97-56.67,46.71-88.78,64.16-6.94,3.78-26.24,14.68-32.62,16.37-1.2.32-2.16.68-3.47.49-2.89-.41-12.23-13.04-15.03-16.04-2.61-2.8-5.45-5.66-8.5-7.99l1.56,19c-11.37,5.81-24.44,8.99-34.54,17-2.87,1.1-7.37,3.21-7.97,6.52-1.88,26.32-3.12,52.63-4.03,78.97-.08,2.4-2.51,8.41-.05,10.08.77.53,16.13,2.25,18.56,2.42,43.86,3.21,88.55-4.34,129.39-19.99,12.33-4.72,30.7-11.28,40.91-19.56,1.17-.95,2.42-1.63,2.06-3.43-9.2,1.06-9.37,5.23-18.99.51-9.03-4.43-26.23-19.75-32.96-27.51-5.18-5.97-9.32-13.02-12.99-19.99,2.49-.38,2.09-.15,3.31,1.22,2.81,3.14,5.57,7.97,8.66,11.3,6.17,6.66,13.08,12.64,20,18.47-3.66-31.66,12.04-69.78,42.97-82.02l-.64-2.07c-4.64-3.93-22.39-15.89-24.33-20.43-.53-1.23.21-1.86,1.47-1.47,3.54,1.09,23.6,18.18,24.49,16.99-.36-13.25-3.45-26.31-6.98-39ZM189.94,345.01c-7.17,1.5-14.42-3.15-21.26-1.78-3.27.66-8.17,4.19-7.57,8.05s6.67,7.76,8.83,4.71c1.02-1.45-5.37-7.57,1.03-10.48,3.66-1.66,8.72,1.29,10.44,4.54.58,1.09.21,5.9,2.5,3.94.92-.78,4.46-7.55,6.01-8.98ZM122.98,348.97c.1-.12.36-2.1-.47-1.96l-10.51,2.48,5.39,4.47c.83-2.11,5.14-4.46,5.59-4.98ZM101,364c1.75,4.63,6.43,6.72,11.25,5.79,9.97-1.93,9.98-19.32,26.17-16.73,13.8,2.21,6.59,24.6-4.02,17.02-1.75-1.25-1.99-5.96-3.91-5.07-5.9,2.74.94,11.24,7.9,10.94,19.3-.85,14.14-29.68-2.83-28.89-10.73.5-13.22,9.36-18.92,14.59-2.76,2.54-9.82,3.78-10.63-.16-.85-4.14,5.79.32,6.9-3.09,1.17-3.61-.86-3.56-2.91-4.39-6.97-2.84-11.35,3.76-8.99,10ZM466.73,360c.36-1.22,3.63-4.26.49-4.02-4.83.37-12.91,3.56-18.29,4.71-33.34,7.13-64.99,10.26-98.54,2.24-4.6-1.1-12.17-4.78-16.06-4.95-2.5-.11-1.57,3.09-1.5,5.02.05,1.42-.26,2.85.21,4.26.63,1.92,10.01,9.86,12.31,11.72,4.87,3.93,12.14,7.37,15.89,12.1,9,11.34,14.38,29.4,22.05,41.91,10.55-15.87,20.43-32.4,33.97-45.99l46.46-16.5c1.25-1.13,2.27-8.01,3.01-10.49ZM126.98,360.99c7.86-1.17,7.36,1.31,10.55,6.98,13.66-5.89-3.79-17.19-10.55-6.98ZM355.81,394c-5.66-5.82-10.98-9.14-17-14.49-2.68-2.38-12.07-11.12-12.07-13.99,0-1.7,2.61-5.8-1.74-3.32-.81.46-7.39,14.77-7.02,17.05,6.01,7.32,12.49,20.76,19.31,26.76,2.95,2.6,2.22-.22,3.96-2.05,1.93-2.03,11.76-12.83,14.55-9.98,1.67,3.46-4.48,15.24-3.57,16.99l23.55,17-13.18-26.3c-1.25-3.87-4.93-5.77-6.8-7.69ZM124.98,366c-1.9-.34-2.97,1.89-4.25,3.17-.75.75-4.69,3.96-3.74,4.82l9.99,1c-1.9-2.83-2.34-5.59-2-8.98ZM152.96,374c-1.52,2.26-2.29,4.15-1.99,7,2.96-1.78,18.53-1.64,18.98-3,1.94-5.83-11.4-12.31-16.99-4ZM183.94,406c-.47,11.27,10.38,13.55,16.2,3.71,2.96-5,2.27-9.29,3.76-14.25,1.35-4.5,2.85,1.05,3.03,3.03.49,5.39-.23,8.78-2.45,13.56-.56,1.2-2.54,3.24-2.53,3.46.03,1.32,5.71,2.7,5.97,4.49-4.31.49-7.86-1.93-11.99.03-.24.33.76,3.08,1,3.99.13.48.98.86,1,1,.48,3.02-.6,5.31-1,8-.02.11-.88.41-.8,1.28.34,3.52,5.39,10.53,5.81,14.71,5.21-1.86,8.77-7.41,11.49-12.02.76-1.29-.18-2.52,2.48-1.97l-5.99,13.98c14.04,6.45,28.51,12.02,43.97,14.01.17.61,2.01,3.75,2.5,4,.37-.61,1.4-2.61,1.49-3,5.74-.35,25.87.27,29.99-2.49,2.66-1.78,3.8-16.03,3.98-19.51.03-.66-.03-1.34,0-2,1.67-4.64,1.68-12.29,0-17-.56-10.32-2-17.01-6.99-26-.95-1.72-1.37-5.36-3.61-5.79-2.92.64-23.38,5.43-23.35,7.29,1.02,1.79,3.94,3.23,4.98,4.5,4.27,5.24,7.83,12.02,6.98,19-1.33.19-1.57-1.97-1.99-3-.12-.29.11-.71,0-1-.34-.87-.69-1.35-1-2-.92-1.97-1.04-3.77-2.57-5.94-10.97-15.59-30.53-14.04-47.39-12.06-.11,1.99.08,4,0,5.99-.05,1,.04,2,0,3-.01.33.02.67,0,1-.11,2.12,1.27,6.89-1.99,6-.39-5.1-.76-11.09-2-16-2.07-8.17-8.97-21.96-19.22-20.82-12.62,1.41-9.44,19.95-9.76,28.82ZM338.83,414c-7.52-10.56-18.71-20.63-25.85-32.65-.83-1.4-1.02-4.16-1.18-4.31-1.3-1.16-13.15,3.62-15.94,2.96-1.01,1.06,7.26,12.38,8.53,14.97,6.77,13.86,8.1,27.75,7.47,43.03-.46,11.02-3.89,18.39-4.93,27.58-.17,1.47-.76,2.76,1.31,2.32s12.93-4.4,13.61-5.65c1.49-2.76,2.77-22.66,3-27.25.42-8.61-.32-17.37.01-25.99,1.66.2,2.01,3.78,2.33,5.15,4.34,18.2,1.32,45.66-2.65,64.03-2.03,9.37-5.58,18.35-7.22,27.78,11.62,8.97,26.44,15.39,40.51,19.53,2.34.69,16.53,4.62,17.41,4.41,1.11-.27,1.4-1.41,1.58-2.41,1.38-7.86-.38-21.28-.04-30.04.74-19,3.13-38.02,4.09-57.02-.34-3.9-4.43-6.05-7.04-8.44-3.1-2.83-6.3-5.33-9.68-7.81-2.4-1.76-15.33-9.37-15.83-10.17-2.32-3.72,3.51-9.67,2.51-14.02l-11.98,14ZM308.85,439c1.08-17.31-1.02-35.52-10.97-50.52-5.15-7.77-6.87-7.15-16.01-5.47-.62.58,7.98,12.72,8.87,14.62,6.22,13.33,7.5,28.99,6.12,43.38-.42,4.37-.54,7.56-1.49,12.01-1.2,5.62-4.83,13.08-5.52,17.49-.26,1.65-.05,1.63,1.45,1.45,1.81-.21,8.59-1.53,9.84-2.17,6.06-3.07,7.32-24.48,7.71-30.78ZM138.97,402c-.13,1.29.17,8.97,2.48,7.99.91-.38,5.07-6.27,7.03-7.97,8.2-7.09,19.72-11,30.45-8.03.59-3.03-.61-4-1.99-6-8.15-11.73-36.55-.23-37.97,14ZM551.66,483.99c-3.6-26.09,6.64-59.17,27.51-75.97,3.93-3.16,8.77-5.02,12.45-8.52-5.93-5.32-6.34-7.86-14.01-4.04-13.78,6.87-26.22,24.13-31.7,38.28-3.9,10.08-8.16,30.32-6.21,40.74.53,2.84,11.21,10.38,11.96,9.52ZM143.97,420c.02,6.42,1.99,7.87,6.5,11.98,6.9-10.6,18.16-16.23,30.48-17.99-1.74-4.48-1.6-8.47-2-12.99-.07-.76.41-1.66-.58-2.09-13.48-4.45-34.44,5.89-34.39,21.09ZM595.63,404c-1.99.07-8.23,1.25-6.98,4.48,1.63,4.23,8.33-1.48,6.98-4.48ZM153.96,438c-.3,4.57.16,4.56,2,8,2.74,5.12,8.67,7.42,14.5,7.99,3.23.31,9.83,1.1,7.02-3.02-1.06-1.55-11.87,1.49-8.52-1.95.46-.47,9.68-4.15,11.91-5.6,6.26-4.05,14.03-10.54,11.07-18.42-.77-2.05-.34-1.53-2-3-9.81-8.71-35.19,3.81-35.97,16ZM376.3,429v1c.65-.33.65-.67,0-1ZM194.93,442c-.51-1.13-.76-3.67-2.48-2.99-2.54,1-7.01,8.9-11.46,9.07l37.71,94.64c2.71,4.32,7.38,4.36,11.21,1.29,2.09-1.68,3.53-3.07,2.6-6.01-13.44-31.07-23.71-65.33-37.57-95.99ZM285.86,467c-1.02-.13-6.93.18-5.98,2.48,1.77,4.29,6.62,2,5.98-2.48ZM561.65,486.01c-.21-.26-5.45-2.52-5.98-2.01-1.16,5.7,8.22,4.71,5.98,2.01ZM192.93,492c-.31-.88.33-3.65,0-4-1.15-1.2-26.61,11.78-30.89,12.07-.94,1.76.66,3,.92,3.93,4.48,15.85,9.15,3.21,18.74,2.16,2.93-.32,5.65,6.32,5.16,8.28-.29,1.16-2.67,1.19-2.94,2.24-1.36,5.27,2.46,2.28,5.04,3.81,1.03.61,3.29,5.54,2.9,6.86-.83,2.84-15.26,6.08-15.82,8.23-.17.65,3.31,9.59,3.87,9.99,1.71,1.2,3.89-.07,5.58-.53,2.41-.65,22.36-8.67,23.43-9.54.76-.62.98-1.01,1.07-2.01.14-1.7-8.17-21.97-9.59-25.46-2.07-5.1-5.77-11.26-7.46-16.03ZM520.69,528c-5.08,10.78-9.84,21.73-15,32.49,5.8-.24,10.84-3.43,16-5.49,13.25-5.31,27.29-11.83,37.98-21.49,10.7-9.67,15.71-24.17,15.97-38.51-16.38,10.31-33.71,18.9-51.92,25.53-1.55,1.32-2.11,5.52-3.03,7.47ZM283.87,544c-1.01,2.54-1.29,4.9-2.01,7.49l1.99.5,17.83-26.75c.79-3.14-2.39-7.37-4.82-9.24.16-.26-.33-1.42.12-1.87s1.43.01,1.88-.13c1.84,2.88,5.04,5.24,5.01,9,.49.46,10.25-3.45,11.98-4,2.4-.77,5.81-.66,7.99-2.5-4.4-2.03-8.71-6.96-12.99-8.5-.29-.1-.65-.94-1.54-.99-2.56-.14-14.13,5.13-15.9,7.04-4.34,4.68-8.64,23.13-9.54,29.95ZM514.69,530c.36-.76,6.6-8.89,2.57-7.94-2.47.58-16.54,4.97-17.88,5.87-1.89,1.26-1.1,3.93-1.68,5.08-4.52,8.87-10.99,21.15-13.97,30.52-.91,2.86,3.18.43,4.52.42,3.29,0,5.36,1.05,7.44,3.57-2.97-.12-5.91-1.86-8.97-1.51-4.52.51-3.22,8.59-3.04,12.54.37,8.16,2.35,16.9,5.04,24.46.34.97-.89,3.26.99,2.99,4-11.74,3.83-26.45,7.52-37.98,3.3-10.34,12.48-27.45,17.48-38.01ZM334.83,526c-5.04,3.1-8.25,5.4-12.99,9-5.01,3.8-4.75,3.39-8.99,8-.19.2-2.07.3-3.47,2.01-5.11,6.24-8.07,20.97-9.52,28.99-.81,1.96-4.2,8.5.02,6.52l19.56-27.5c.81-2.9-3.47-7.57-6.59-8.02.23-.4-.23-1.81,0-2,.36-.3,2.44.3,3,0,1.56,1.47,4.68,7.15,6.33,6.9,6.56-4.76,14.02-8.29,20.65-12.9,1.14-.79,3.43-1.01,3.89-2.65.11-.4-.81-7.86-1.03-8.21-.23-.37-7.82-3.15-8.25-3.04-1.01.24-1.65,2.32-2.6,2.9ZM352.82,536c6.82,20.84,20.73,26.32,40.94,30.53,5.15,1.07,40.05,5.98,41.9,4.37,2.25-8.45,6.88-17.18,11.09-24.9.67-1.22,5.76-8.32,4.99-8.99-33.86,3.34-67.7,1.69-100.41-8.02-1.88.11,1.23,6.25,1.49,7.01ZM475.72,538v1c-2.78,3.23-11.99,24.45-13.3,29.19-.44,1.6-.91,3.12-.68,4.81,1.28.45,1.88-.98,1.99-1,2.73-.36,5.91-.02,6.99,2.99-3.02-.44-4.22-.59-6.99.01-.84.18-2.02-.23-2.96.02-.48,11.06.52,22.2,2.96,32.98.51,2.26.91,6.76,2.99,7.99,1.4-11.16,4.98-22.32,6-33.52.23-2.49-1.01-7.01-.84-7.34.2-.37,3.85-2.79,5.35-6.14,4.38-9.76,7.75-20.97,12.49-31,1.23-2.6,4.4-5.73,4.48-9.01-6.81,2.8-16.51.41-18.47,9.01ZM470.73,540c.5-1.05,4.83-6.13,1.48-6.04-1.81.05-14.65,1.79-15.3,2.2-.78.5-.66,3.04-1.17,3.83-2.3,3.57-16.48,28.1-14.98,30,1.33-.46,2.48-1.17,3.99-1,1.73.2,7.63,4.28,7.98,4,4.67-11.69,12.56-21.64,18-33ZM519.69,560c-3.58,1.35-15.2,3.46-17.05,5.71-.82,1.58-1.39,3.18-1.82,4.91-2.12,8.54-2.24,19.06-4.11,27.38-.41,1.84-2.87,9.5-3.93,10.56-2.38,2.4-4.45.85-6.06,1.44-5.24-9.57-5.64-20.63-7.29-31.21-.18-1.18-.25-4.85-1.7-4.79-.93,6.81-4.49,41.98-8.41,45.08-7.66,6.05-10.85-15.85-11.59-20.09-6.01,4.39.22,19.61-10.31,16.98-.91-.23-.29-2.23-2.09-2.03-2.45.27-5.57,3.09-7.57,4.55,12.2,2.57,24.52,3.47,36.97,3.5,8.31.02,15.8.1,24.03-1.45,35.11-6.62,62.77-51.63,64.9-85.55l-22.31,15.17c-7.04,3.57-14.27,7.04-21.66,9.83ZM350.82,553c-3.93,2.34-20.66,15.35-22.82,18.62-4.41,6.66-5.89,19.59-7.16,27.38-.48,2.93-2.39,6.7-1.99,10,7.53-8.67,13.08-19.63,18.84-29.75.42-2.98-4.65-6.45-6.85-8.25-.29-1.5,3.16-.51,4,0,1.78,1.09,3.53,6.29,5.37,5.89,1.47-.47,21.52-14.66,22.15-15.87,1.3-2.52-2.34-3.2-3.53-4.53-3.71-4.12-2.24-6.92-8-3.5ZM368.47,563.09c-2.46.79-5.25,10.82-5.56,13.51-.78,6.96.47,16.8,6.54,21.24,8.54,6.26,46.73,17.04,58.1,18.85,8.12,1.29,9.38-.67,15.76-5.71l-8.49-36.56c-12.49-.49-24.91-1.48-37.22-3.75-4.73-.87-27.69-8.05-29.12-7.58ZM446.75,605c.28.71,2.16,8.34,3.99,6l2.04-36.45c-4.42-1.04-4.08-2.65-9.03-2.56-1.33.02-2.67-.04-4,0,.33,10.9,2.99,22.85,7,33ZM428.76,620c-20.93-3.62-41.1-10.53-60.48-18.98-8.51,3.98-13.76,27.18-8.89,33.9,1.87,2.57,30.72,15.93,33.74,15.78,7.42-.37,34.67-21.21,35.63-30.7ZM463.73,625c-10.79-.8-21.28-2.54-32.01-3.57-6.3,14.78-20.83,23.07-33.94,31.07,5.77,3,13.19,2.99,18.98,4.5,1.13.29,5.08,1.48,5.61,1.9,1.42,1.12.94,3.86,2,4.17,3.74,1.08,20.42-3.46,25.13-4.8,13.74-3.92,27.34-9.67,38.93-18.04,6.09-4.4,13.48-10.07,16.26-17.22-14.1,3.42-26.69,3.06-40.96,1.99ZM244.9,642c.63,3.56,7.54,10.65,10.52,12.98,2.14,1.67,14.3,8.74,16.14,8.84.78.04,10.1-5.36,12.35-6.29,23.4-9.6,49.86-13.26,74.91-15.54.58-2.79-1.92-2.3-2.99-2.99-5.06-3.29-8.69-2.14-14.35-3.14-24.22-4.29-67.64-15.76-89.95-4.73-4.78,2.36-7.62,5.19-6.62,10.88ZM328.83,670c-3.76,4.02-7.67,7.98-10.8,12.69-.86,1.3-6.28,8.85-2.71,8.31,16.97-5.54,33.44-12.39,49.15-20.82,6.66-3.57,13.03-9.18,20.31-11.17.45,2.24-2.52,3.17-4.1,4.38-12.66,9.6-31.37,19.27-46.34,24.64-3.55,1.27-22.22,6.07-23,6.98-1.13,1.32-2.63,10.35-2.58,12.5.16,6.78,4.07,12.13,10.82,13.26,30.51,5.14,57.8-37.77,74.55-57.94,1.68-2.03,1.88-1.26,2.65-1.82-1.78,5.22-5.45,10.39-8.6,14.89-8.1,11.57-21,26.23-31.9,35.08-2.57,2.09-15.51,10.21-16.03,11.03-2.57,4.08,7.65,10.77,11.5,11.56,25.86,5.31,54.42-32.11,62.87-53.2,2.34-5.83,4.33-11.95,4.15-18.36-6.18.26-12.04-2.21-17.99-3.54-1.48-.33-2.87.62-3,.54-7.48-4.8-21.46-9.99-30.98-14-1.06-.45-2-1.98-3.48-1.96-12.98,6.7-24.5,16.29-34.49,26.96ZM351.81,646.01c-19.28,1.71-40.44,5.29-58.74,11.7-10.59,3.71-30.45,11.21-24.44,26.03,3.99,9.84,32.72,11.54,40.53,7.07,1.05-.6,10-15.25,12.65-18.34,4.45-5.19,10.44-9.78,15-14.99l15-11.48Z"/>
        <path class="cls-1" d="M396.78,661c.24-.72-.52-2.07,1-2,.35,1.72-.16,1.39-1,2Z"/>
        <g>
          <path class="cls-5" d="M585.64,85c-5.05.38-12.42.56-16.99-1,5.48.22,12.11-1,16.99,1Z"/>
          <path class="cls-5" d="M588.64,97c-4.71,1.68-12.35,1.68-16.99,0,5.42.15,11.62.32,16.99,0Z"/>
          <path class="cls-2" d="M473.73,165c-7.74-2.15-15.26-5.25-22.99-7.5-50.2-14.62-106.21-19.15-156.87-4.51-3.34-10.16,12.57-13.95,14.54-18,.81-1.67-1.58-4.6,2.01-9.93,5.19-7.72,13.6-10,22.21-11.77,70.06-14.43,150.56,16.91,206.77,57.48,8.44,6.09,26.1,16.85,23.25,28.22-.65.54-11.95-8.63-14.06-9.46-1.16-.46-2.42-.33-2.92-.54-.21-.67.49-1.19-.62-2.08-1.52-1.21-7.17-3.14-9.36-3.92-.62,2.13,2.92,3.5,4.31,4.16,2.3,1.09,4.17,1.2,5.67,1.83.31,1.01.34,2.11,1,3-20.17-9.72-43.35-17.95-64.95-24-.31-.09-.69.08-1,0l-2-1c-.32-.08-.7.09-1,0l-1-1c-.28-.11-.7.11-1,0-.37-.98-1.23-.79-2-1ZM349.72,118.15c-1.58-1.15-4.06,2.94-5.42,3.84-2.18.72-1.24-2.19-3.1-2.85-7.05-2.52-8.46,11.94-11.34,16.37,7.3,5.94,4.29-5.69,8.95-8.51-.22,2.63.22,5.12.87,7.65.23.9-.31,3.27,1.62,2.34,2.49-1.2,3.42-9.85,6.01-12,2.07,4.76-2.77,12.74,4.49,11.01-.5-6.02,2.07-11.11-.01-17.01-2.62,1.95-1.71-.57-2.08-.84ZM391.79,126c-.68-.3-1.32-.69-2-1-.75-.34-1.25-1.65-2.99-1-.8.56-1.4,12.48-5,9-1.39-1.34,2.68-8.33-.52-10-3.42-.72-3.9,9.43-3.49,11.51.76,3.87,9.09,5.5,11-.52.48.11.93.53,1,1,.14.93-.12,2.03,0,3,6.7,1.46,2.53-11.04,8.99-8.5.94,2.13-2.2,8.74.51,9.49,3.96,1.1,2.9-3.13,3.69-4.8.12-.26.77-.14.8-.19.24,1.26-.42,8,3.02,5.53,1.88-1.35,5.39-17.7-.53-11.53-.9.94-1.79,4.5-2.5,6-.31-1.67-1.09-7.56-1.44-8.06-1.19-1.72-5.21-.58-5.57-.93-.32-.32.89-6.49-1.51-7-2.85-.6-3.1,6.22-3.48,7.99ZM406.78,124.99c.65.65,5.54-.03,4.99-2.48-.87-3.83-7.27.2-4.99,2.48ZM364.82,132.99c-.13-2.25,1.17-4.25,1.09-6.51-.29-7.58-14.61-4.21-11.09-.49.6.63,5.84-1.25,6,.99-8.05-1.37-11.84,10.08-2.51,10.05,2.26,0,4.58-1.74,5.99-1.62.89.08,2.44,1.42,4.95,1.65,7.03.64,10.3-1.42,2.58-4.56.81-2.63,7.6-7.15,5.98-9.5-1.24-1.8-13.23-.66-9.99,2.98.36.4,3.9-1.01,2.99,1.49l-5.98,5.51Z"/>
          <path class="cls-5" d="M449.74,97c19.61,4.79,38.64,13.75,55.27,25.18l17.67,13.82c6.3,6.8,12.06,13.61,17.01,21.48,1.4,2.22,5.39,8.08,5.96,10.04.41,1.41-.09,1.77-1.47,1.47-33.69-24.74-71.57-45.04-112.43-54.99,2.96-8.24,10.9-12.8,17.98-16.99Z"/>
          <path class="cls-5" d="M652.59,64c-16.7,15.74-39.13,28.14-62.47,29.98-50.18,3.97-111.89-32.91-154.86,9.02-4.84,4.72-4.55,10.97-12.5,7.99,18.55-27.45,51.79-35.35,83.42-31.98,7.76.83,16.97,4.49,24.5,1.98,49.73,9.09,77.49,13.14,120.91-18l1,1Z"/>
          <path class="cls-2" d="M579.65,192l3.78-2.71,16.2-6.28c-11.82-.17-22.43,5.64-31.96,11.99-.81-8.13-5.74-7.14.98-13.51,8.81-8.36,31.47-19.49,43.48-19.49h19.49c.04,2.84-1.2,5.38-2,8-4.81,2.33-8.43,6.56-13.07,9.42-12.38,7.62-23.21,9.56-36.89,12.58Z"/>
          <path class="cls-5" d="M509.7,20l1,1c-11.31,6.96-22.69,11.19-35.97,12-3.52.21-8.29-.99-10.99,1-2.99.02-6,.01-8.99,0-2.68-1.91-7.49-.89-10.99-1-19-.61-38.22-5.68-57.45-4.99-41.02,1.48-96.58,25.87-79.49,76.53,1.26,3.73,6.25,10.03,4.56,13.45-.67,1.35-3.02,2.69-4.4,1.89-.58-.33-5.5-10.32-6.11-11.87l-1.98-14.52c-.47-58.3,60.48-69.28,106.91-68.48.33,0,.67,0,1,0,1.26,1.65,5.73,1.65,6.99,0,13.23.88,25.53,4.47,38.97,5,5.08,1.68,12.98,1.67,17.99,0,8.49-.38,16.55-2.18,24.74-4.74,4.34-1.36,10.17-3.38,14.23-5.26Z"/>
          <path class="cls-6" d="M428.76,94c-21.85-2.48-47.76-.35-66.95,11-7.32.27-14.68,1.5-21.98,1.99,20.7-16.88,51.1-23.49,77.48-22.03,2.59.14,18.41,1.81,18.42,3.54-1.85,2.26-4.98,3.54-6.97,5.5Z"/>
          <path class="cls-6" d="M629.61,170c-4.53,14.78-13.73,23.72-28,29.48-2.61,1.05-12.37,4.52-14.47,4.52h-19.49c-1.36-4.63,8.44-11.22,11.99-12,13.68-3.02,24.51-4.96,36.89-12.58,4.64-2.86,8.26-7.09,13.07-9.42Z"/>
          <path class="cls-5" d="M428.76,94c-4.8,4.72-8.36,10.61-12.58,15.82-17.89-3.15-36.17-5.5-54.37-4.82,19.19-11.35,45.1-13.48,66.95-11Z"/>
          <path class="cls-2" d="M630.61,218c-.17.13.31,1.62-.06,1.92-4.97,3.95-25.75,1.32-30.92,2.08-8.82-1.46-21.25-4.35-28.35-9.93-.96-.76-.82-2.87-.63-3.07.43-.45,10.05.1,12.37-.13,5.79-.59,17.36-4.72,21.66-3.42,2.39.72,8.39,4.93,11.59,6.41,4.72,2.18,9.95,3.26,14.35,6.14Z"/>
          <path class="cls-6" d="M599.63,222c5.16-.76,25.94,1.87,30.92-2.08.37-.3-.11-1.79.06-1.92.22-.16,6.14-.78,4.99,1.49-10.71,9.81-23.62,15.67-38.45,14.49-5.41-.43-30.23-7.76-29.25-14.28.04-.26,2.01-4.7,2.27-4.72,1.4-.08,7.96,4.52,10.49,5.5,7.86,3.04,11.1,2.67,18.97,1.51Z"/>
          <path class="cls-6" d="M546.67,192c4.25,2.05,15.88,10.66,18.04,14.45.99,1.72,2.19,8.62-.54,7.54s-9.1-6.81-12.2-8.8c-22.34-14.38-45.85-26.69-70.26-37.19,21.6,6.05,44.78,14.28,64.95,24Z"/>
          <path class="cls-2" d="M573.65,164c-5.87-.95-12.22,12.91-14.58,13.91s-4.02-2.8-4.18-4.58c-.18-1.93,3.97-8.41,5.36-10.25,7.7-10.13,19.72-16.79,31.81-20.12,1.5.14,1.53,5.76,1.58,7.03l-19.99,14Z"/>
          <path class="cls-6" d="M405.78,25c-46.43-.79-107.38,10.18-106.91,68.48l1.98,14.52c-17.3-43.61,20.4-75.45,59.9-82.55,14.09-2.53,31.15-3.92,45.02-.45Z"/>
          <path class="cls-6" d="M530.68,81c-7.52,2.5-16.74-1.16-24.5-1.98-31.63-3.37-64.88,4.53-83.42,31.98-.86-.32-2.61.85-1.95-1.44,2.35-8.15,21.52-22.08,29.26-25.74,26.47-12.51,53.19-7.84,80.62-2.82Z"/>
          <path class="cls-6" d="M522.69,136l-17.67-13.82c-16.63-11.44-35.66-20.4-55.27-25.18,1.34-.79,2.26-2.86,4.98-3.55,5.65-1.44,21.35,6.93,27.01,10.03,15.93,8.7,28.71,19.3,40.95,32.52Z"/>
          <path class="cls-6" d="M593.64,150c.15,3.58.6,10.55-2.59,12.91-10.53,3.97-21.66,10-28.4,19.08-1.86.27-.64-1.95-.31-2.8,2.38-6.06,7.28-10.33,11.31-15.19l19.99-14Z"/>
          <path class="cls-3" d="M470.73,30c-5,1.67-12.91,1.68-17.99,0,5.72.23,12.27.26,17.99,0Z"/>
          <path class="cls-3" d="M510.7,21l-1-1c2.58-1.2,5.51-4.75,8.97-4.51-2.16,2.58-5.22,3.81-7.97,5.51Z"/>
          <path class="cls-3" d="M454.74,34c-3.45-.02-8.36.84-10.99-1,3.5.11,8.32-.91,10.99,1Z"/>
          <path class="cls-3" d="M652.59,64l-1-1c2.27-1.63,4.82-4.96,7.97-5.51-2,2.51-4.68,4.35-6.97,6.51Z"/>
          <path class="cls-3" d="M474.72,33c-2.64,1.84-7.54.98-10.99,1,2.7-1.99,7.47-.79,10.99-1Z"/>
          <path class="cls-6" d="M413.77,25c-1.26,1.65-5.73,1.65-6.99,0,2.32.07,4.69-.15,6.99,0Z"/>
          <path class="cls-6" d="M480.72,168c-1.39-.36-1.89-.97-2-1l2,1Z"/>
          <path class="cls-6" d="M475.72,166c-.68-.25-1.7.09-2-1,.77.21,1.63.02,2,1Z"/>
          <path class="cls-6" d="M477.72,167c-.7-.22-.93-.97-1-1l1,1Z"/>
          <path class="cls-1" d="M364.82,132.99l5.98-5.51c.91-2.5-2.63-1.09-2.99-1.49-3.24-3.64,8.74-4.78,9.99-2.98,1.62,2.35-5.17,6.87-5.98,9.5,7.72,3.14,4.45,5.21-2.58,4.56-2.51-.23-4.06-1.57-4.95-1.65-1.41-.13-3.73,1.61-5.99,1.62-9.33.03-5.54-11.42,2.51-10.05-.15-2.25-5.4-.36-6-.99-3.51-3.72,10.8-7.09,11.09.49.09,2.26-1.22,4.26-1.09,6.51Z"/>
          <path class="cls-1" d="M349.72,118.15c.37.27-.54,2.79,2.08.84,2.08,5.9-.49,10.99.01,17.01-7.26,1.72-2.42-6.25-4.49-11.01-2.59,2.15-3.52,10.8-6.01,12-1.93.93-1.39-1.43-1.62-2.34-.65-2.53-1.09-5.02-.87-7.65-4.66,2.82-1.65,14.45-8.95,8.51,2.88-4.43,4.29-18.89,11.34-16.37,1.86.66.92,3.57,3.1,2.85,1.36-.9,3.84-4.99,5.42-3.84Z"/>
          <path class="cls-1" d="M391.79,126c.38-1.78.64-8.59,3.48-7.99,2.4.5,1.18,6.68,1.51,7,.36.35,4.38-.79,5.57.93.35.5,1.12,6.39,1.44,8.06.71-1.5,1.59-5.06,2.5-6,5.91-6.17,2.41,10.18.53,11.53-3.44,2.48-2.79-4.27-3.02-5.53-.02.05-.68-.07-.8.19-.78,1.67.27,5.9-3.69,4.8-2.71-.75.44-7.36-.51-9.49-6.46-2.54-2.29,9.96-8.99,8.5-.13-.97.14-2.07,0-3,1.56-2.44,1.39-6.13,2-9Z"/>
          <path class="cls-1" d="M388.79,134c-1.91,6.02-10.24,4.39-11,.52-.41-2.08.08-12.23,3.49-11.51,3.2,1.67-.87,8.65.52,10,3.6,3.48,4.2-8.44,5-9,1.73-.65,2.24.65,2.99,1,.05,2.78-.17,6.39-1,9Z"/>
          <path class="cls-5" d="M406.78,124.99c-2.29-2.28,4.12-6.31,4.99-2.48.55,2.45-4.34,3.13-4.99,2.48Z"/>
          <path class="cls-6" d="M391.79,126c-.61,2.87-.44,6.56-2,9-.07-.47-.52-.89-1-1,.83-2.61,1.05-6.22,1-9,.68.31,1.32.7,2,1Z"/>
        </g>
        <g>
          <path class="cls-3" d="M274.87,469c-5.88-.33-12.17.45-17.99,0,2.92-1.56,16.54-1.72,17.99,0Z"/>
          <path class="cls-5" d="M550.67,210c1.89,19.99.96,38.82-4.28,58.22-7.6,28.11-20.85,47.6-42.17,66.8-1.3,1.17-2.47,2.02-2.51,3.99-.28.13-.72-.12-1,0l-1,1c-43.95,19.39-136.18,40.12-175.87,6-13.88-11.93-24.27-37.44-28.3-55.18-8.06-35.53-6.04-73.76,3.31-108.82,5.91-5.16,11.5-6.4,19.22-3.74,2.92,1.01,4.7,3.53,7.75,3.73-2-9.26-14.96-13.15-22.98-9.99l6.99-18c79.72-18.09,174.5,11.61,240.82,56ZM458.73,192.99c.43-20.71-25.39-30.81-40.29-16.83-.82.77-6.18,7.01-2.18,5.82,2.12-.63,5.16-3.14,7.96-4.04,16.16-5.17,25.55,2.42,34.52,15.05ZM320.5,243.66c11.51-11.61,9.02-52.17-8.92-50.46-16.67,1.59-18.42,46.44-2.48,53.03,4.01,1.66,8.46.39,11.4-2.58ZM418.1,246.66c6.76,6.59,14.15,2.55,18.49-4.33,6.71-10.64,6.55-33.85-2.43-43.24-11.56-12.1-21.98,4.42-23.28,15.51-1.07,9.15.29,25.3,7.22,32.06ZM344.82,272c4.4,1.19,8.22.24,10.99-3.99-7.02-2.44-14.18-6.93-20.11-11.39-1.38-1.03-3.01-1.35-2.87-3.62,3.13.04,5.59.9,8.46,1.04,3.26.16,20.45,1.27,19.52-4.04-.25-1.42-25-1.8-28.49-4.08-6.15.06-7.31,2.68-6.42,8.52,1.06,6.9,12.33,15.79,18.92,17.56ZM421.49,276.23c-4.12.86-15.28,8.08-20.72,10.25-9.65,3.85-23.1,7.81-33.42,8.55s-19.86-1.36-29.82-.85c-11.94,11.03,11.56,27.32,20.93,31.66,26.65,12.34,54.71.62,68.48-24.19,4.67-8.42,12.26-29.13-5.45-25.44Z"/>
          <path class="cls-5" d="M629.61,343c3.16,7.52-2.57,12.91-1.81,19.24.45,3.73,3.7,5.9,5.81,8.76.3.4.77.68,1,1,.25.34.76.61,1,1,.74,1.23,1.41,3.56,2,5-7.6,6.23-12.6,21.37-6.49,29.99-.27-14.23,2.44-25.65,16.8-31.18s6.99,4.59,17.67,7.18c-5.4-10.31-14.13-26.44-7.99-37.99,6-2.21,13.37,3.76,17.53,7.96,6.8,6.88,11.06,16.16,14.45,25.04-2.9,16.45-17.34,29.39-31.29,37.19-2.67,1.49-7.98,2.62-9.68,3.81-1.37.96-7.33,12.83-9.58,15.91-18.44,25.3-43.18,41.99-75.04,28.26-2.27-.98-6.28-2.2-6.32-5.18,1.87-10.73,4.11-19.41,9.47-29.02,2.57-4.61,10.15-15.62,14.51-17.98l4,4c-4.75,8.09-8.16,15.11-6.99,25,3.46.8,1.55-3.02,1.99-5,2.48.55,2.04-1.3,2.8-2.64,8.84-15.54,21.24-20.08,36.5-27.33,1.13-.54.69-1.03.67-2.02-.09-3.76-2.66-4.69-4-8-3.33-8.28-4.93-22.26-3.55-31.05,1.2-7.65,8.03-20.8,16.54-21.95Z"/>
          <path class="cls-5" d="M183.94,406c.1-2.51,2.62-16.79,3.48-19.02.67-1.74,3.5-5.25,5.22-5.77,9.56-2.86,14.26,7.07,17.57,14.05.69,1.45.1,3.29,2.71,2.74,1.24,4.91,1.62,10.9,2,16,3.26.89,1.89-3.88,1.99-6l.98-.5-.98-.5c.04-1-.05-2,0-3,12.49-2.53,26.28-2.38,37.86,3.61,4.54,2.35,7.6,6.39,12.1,8.39.31.65.66,1.13,1,2l-.98.5.98.5c.41,1.03.66,3.19,1.99,3,.84-6.98-2.72-13.75-6.98-19,6.78-3.48,14.55-4.62,21.98-6,5,8.99,6.44,15.68,6.99,26,.29,5.33.22,11.64,0,17-.03.66.03,1.34,0,2-4.24,1.52-8.96.45-12.99,1,.6-2.9-1.43-1.82-3.16-2.28-16.95-4.46-16.32-8.95-18.83-25.72-2.01.39-1.63,2.12-1.99,3.5-3.87,15.05-3.44,20.69-21.98,22.5-3.59-4.33-18.55-2.1-15.99-11-7.54,2.46-11.68,6.91-19.98,3,.4-2.69,1.48-4.98,1-8l-1-1c-.24-.9-1.24-3.65-1-3.99,4.13-1.95,7.68.46,11.99-.03-.26-1.79-5.94-3.17-5.97-4.49,0-.21,1.97-2.26,2.53-3.46,2.22-4.78,2.94-8.18,2.45-13.56-.18-1.98-1.68-7.53-3.03-3.03-1.49,4.96-.8,9.25-3.76,14.25-5.82,9.84-16.66,7.56-16.2-3.71Z"/>
          <path class="cls-6" d="M466.73,360c-.74,2.48-1.76,9.35-3.01,10.49l-46.46,16.5c-13.53,13.58-23.42,30.12-33.97,45.99-7.67-12.51-13.05-30.57-22.05-41.91-3.75-4.73-11.02-8.17-15.89-12.1-2.3-1.86-11.68-9.79-12.31-11.72-.46-1.4-.15-2.84-.21-4.26,4.52.83,8.51,3.09,13,4.49,39.65,12.41,81.86,2.21,120.9-7.49Z"/>
          <path class="cls-3" d="M550.67,210c1.93,1.29,9.29,5.6,10.04,6.71,1.98,2.95,5.22,19.55,5.82,23.92,7.31,53.39-20.35,78-64.82,98.37.04-1.97,1.21-2.81,2.51-3.99,21.32-19.19,34.57-38.69,42.17-66.8,5.24-19.4,6.17-38.22,4.28-58.22Z"/>
          <path class="cls-3" d="M648.6,420l3.99,2.49c-13.83,43.47-48.02,88.85-96.93,54.81-.7-6.26.96-12.24,2.02-18.29.04,2.98,4.05,4.2,6.32,5.18,31.86,13.73,56.59-2.96,75.04-28.26,2.25-3.09,8.21-14.95,9.58-15.91Z"/>
          <path class="cls-6" d="M309.85,154l-6.99,18c-4.75,1.87-12.71,11.33-10.5,16.99,2.16-2.75,3.85-4.68,6.5-6.99-9.35,35.06-11.38,73.28-3.31,108.82,4.03,17.75,14.42,43.25,28.3,55.18-19.71-13.7-32.08-35.72-37.48-58.99-8.01-34.46-7.52-81.89,4.76-115.26,5.06-13.76,4.56-14.54,18.73-17.75Z"/>
          <path class="cls-3" d="M196.93,433c8.3,3.91,12.44-.54,19.98-3-2.56,8.9,12.4,6.67,15.99,11,.15.18-.35,1.42.14,1.82,1.75,1.46,11.78,1.05,16.4,6.13,3.98,4.37,3.18,9.5,4.45,14.05-15.46-1.99-29.92-7.57-43.97-14.01l5.99-13.98c-2.66-.56-1.72.68-2.48,1.97-2.72,4.61-6.28,10.16-11.49,12.02-.42-4.19-5.47-11.19-5.81-14.71-.08-.88.78-1.18.8-1.28Z"/>
          <path class="cls-3" d="M471.73,358c.88-1.59,1.31-3.44,3.05-4.45,30.02-9.91,58.45-24.55,80.45-47.53,1.22-1.28,1.61-4.81,3.5-2.41,1.31,1.68,5.23,13.59,4.46,15.34-1.55,3.52-21.98,16.38-26.51,19.04.8-3.58-2.86-1.21-3.87-2.11-.41-.36-.72-3.86-1.13-4.89-10.28,3.63-19.6,11.11-29.76,15.71-9.74,4.41-20.3,7.23-30.19,11.29Z"/>
          <path class="cls-5" d="M332.83,363c-.07-1.93-1-5.13,1.5-5.02,3.89.17,11.46,3.85,16.06,4.95,33.55,8.02,65.2,4.89,98.54-2.24,5.38-1.15,13.46-4.35,18.29-4.71,3.14-.24-.13,2.81-.49,4.02-39.04,9.7-81.26,19.91-120.9,7.49-4.48-1.4-8.47-3.67-13-4.49Z"/>
          <path class="cls-5" d="M471.73,358c9.89-4.05,20.45-6.88,30.19-11.29,10.16-4.6,19.48-12.07,29.76-15.71.41,1.03.73,4.53,1.13,4.89,1.02.9,4.67-1.48,3.87,2.11-15.62,9.19-50.59,26.75-67.47,30.98-2.16.54-1.27.13-.99-.98.93-3.63,1.67-6.67,3.51-10Z"/>
          <path class="cls-3" d="M291.86,442c-.18,3.48-1.32,17.73-3.98,19.51-4.13,2.76-24.25,2.14-29.99,2.49,1.11-4.78.73-10.76,4.43-15.07,2.69-3.14,12.4-5.36,16.55-5.93s8.75.52,12.99-1Z"/>
          <path class="cls-5" d="M178.94,401c.4,4.53.26,8.51,2,12.99-12.32,1.76-23.58,7.39-30.48,17.99-4.51-4.11-6.48-5.57-6.5-11.98,8.99-11.07,20.2-18.68,34.97-19Z"/>
          <path class="cls-5" d="M191.93,425c.69,7.54,0,4.86-4.38,7.1-9.97,5.11-19.68,12.94-31.59,13.9-1.84-3.44-2.29-3.43-2-8,4.75-2.65,8.26-7.53,13.08-10.41,3.57-2.13,7.32-3.94,11.51-4.48,3.72-.47,8.19.95,11.38-1.11,1.66,1.47,1.23.95,2,3Z"/>
          <path class="cls-5" d="M637.6,326c4.21-1.26,8.3.08,12.42,1.07,9.48,2.3,29.1,10.61,33.55,18.93,1.04,1.95,3.03,4.59,1.5,6.99-8.45-9.68-24.44-25.57-32.98-7-4.63-5.61-16.99-11.06-14.49-20Z"/>
          <path class="cls-4" d="M232.9,441c18.54-1.81,18.12-7.45,21.98-22.5.36-1.38-.02-3.11,1.99-3.5,2.51,16.76,1.89,21.25,18.83,25.72,1.74.46,3.76-.61,3.16,2.28-4.15.57-13.86,2.8-16.55,5.93-3.7,4.31-3.32,10.29-4.43,15.07-.09.39-1.12,2.38-1.49,3-.5-.25-2.33-3.39-2.5-4-1.27-4.55-.47-9.68-4.45-14.05-4.63-5.08-14.66-4.67-16.4-6.13-.49-.41,0-1.65-.14-1.82ZM267.88,441.01c-.28-.28-6.14-1.29-7.01-3.5l-4.97-9.5c-1.26,4.67-3.64,9.05-7.64,11.87-1.07.75-6.34,1.11-4.36,3.12.9.91,5.51.49,9.2,6.3.91,1.44,1.88,7.53,3.78,5.71.75-.71,1.15-7.01,6.64-10.87,1.07-.75,6.33-1.1,4.36-3.11Z"/>
          <path class="cls-6" d="M266.88,416c-4.5-2-7.57-6.04-12.1-8.39-11.58-5.99-25.37-6.14-37.86-3.61.09-1.99-.1-4.01,0-5.99,16.86-1.98,36.42-3.54,47.39,12.06,1.53,2.17,1.64,3.97,2.57,5.94Z"/>
          <path class="cls-5" d="M176.95,388c1.39,1.99,2.58,2.96,1.99,6-10.73-2.97-22.25.94-30.45,8.03-1.97,1.7-6.13,7.58-7.03,7.97-2.32.98-2.61-6.7-2.48-7.99,4.92-2.08,7.32-6.53,12.07-9.42,7.89-4.79,16.85-6.74,25.9-4.58Z"/>
          <path class="cls-3" d="M191.93,425c2.96,7.88-4.81,14.36-11.07,18.42-2.23,1.44-11.45,5.13-11.91,5.6-3.35,3.44,7.46.4,8.52,1.95,2.81,4.12-3.78,3.33-7.02,3.02-5.83-.56-11.76-2.86-14.5-7.99,11.91-.96,21.62-8.79,31.59-13.9,4.37-2.24,5.07.44,4.38-7.1Z"/>
          <path class="cls-6" d="M629.61,343c-8.51,1.15-15.34,14.3-16.54,21.95-1.38,8.79.21,22.77,3.55,31.05-9.34-12.33-10.98-31.07-3.19-44.69,2.64-4.62,12.54-16.96,16.18-8.31Z"/>
          <path class="cls-6" d="M620.62,404c.02.99.47,1.49-.67,2.02-15.26,7.25-27.66,11.79-36.5,27.33-.77,1.35-.32,3.19-2.8,2.64,3.52-15.51,12.27-23.93,26.71-29.77,4.19-1.69,8.99-4.22,13.26-2.23Z"/>
          <path class="cls-6" d="M143.97,420c-.05-15.21,20.91-25.54,34.39-21.09.99.43.51,1.34.58,2.09-14.77.32-25.98,7.93-34.97,19Z"/>
          <path class="cls-3" d="M635.6,373c4.45-6.19,9.22-7.87,13.73-14.77.69-1.06.91-2.63,1.77-.24,1.41,3.91,1.91,10.69,3.48,15.01-5.46-.73-12.73,1.52-16.98,5.01-.59-1.44-1.26-3.77-2-5Z"/>
          <path class="cls-6" d="M683.57,346c-4.45-8.31-24.07-16.63-33.55-18.93-4.12-1-8.21-2.33-12.42-1.07,2.44-8.76,20.76-.8,26.65,1.83,7.88,3.52,17.79,8.78,19.31,18.17Z"/>
          <path class="cls-6" d="M689.56,379c-3.39-8.88-7.65-18.16-14.45-25.04-4.15-4.2-11.52-10.17-17.53-7.96,5.01-9.43,16.33,1.54,21.01,6.48,4.93,5.2,11.46,14.96,11.91,22.19.14,2.29-.7,2.94-.94,4.34Z"/>
          <path class="cls-6" d="M176.95,388c-9.05-2.15-18.01-.21-25.9,4.58-4.75,2.88-7.15,7.34-12.07,9.42,1.42-14.23,29.82-25.73,37.97-14Z"/>
          <path class="cls-6" d="M189.94,422c-3.19,2.06-7.66.64-11.38,1.11-4.19.53-7.95,2.34-11.51,4.48-4.82,2.89-8.33,7.76-13.08,10.41.79-12.19,26.17-24.71,35.97-16Z"/>
          <path class="cls-6" d="M284.87,397c-7.44,1.38-15.2,2.52-21.98,6-1.03-1.27-3.95-2.71-4.98-4.5-.04-1.86,20.43-6.65,23.35-7.29,2.24.43,2.66,4.08,3.61,5.79Z"/>
          <path class="cls-6" d="M212.92,398c-2.61.55-2.02-1.29-2.71-2.74-3.31-6.98-8.01-16.91-17.57-14.05-1.72.51-4.54,4.03-5.22,5.77-.86,2.23-3.37,16.51-3.48,19.02.32-8.87-2.86-27.41,9.76-28.82,10.25-1.14,17.15,12.64,19.22,20.82Z"/>
          <path class="cls-3" d="M291.86,440c.22-5.36.29-11.67,0-17,1.68,4.71,1.67,12.36,0,17Z"/>
          <path class="cls-6" d="M585.64,416l-4-4c1.84-.99,2.17-1.84,4.56-.05,3.43,2.57-.07,3.22-.56,4.05Z"/>
          <path class="cls-3" d="M499.71,340l1-1c-.25.11-.54.8-1,1Z"/>
          <path class="cls-3" d="M634.61,372c-.23-.32-.7-.6-1-1l1,1Z"/>
          <path class="cls-6" d="M216.92,408c.02-.33-.01-.67,0-1l.98.5-.98.5Z"/>
          <path class="cls-6" d="M267.88,419l-.98-.5.98-.5c.11.29-.12.71,0,1Z"/>
          <path class="cls-3" d="M197.93,425c-.02-.14-.87-.52-1-1l1,1Z"/>
          <path class="cls-1" d="M421.49,276.23c17.71-3.69,10.12,17.02,5.45,25.44-13.77,24.81-41.83,36.52-68.48,24.19-9.37-4.34-32.87-20.63-20.93-31.66,9.97-.52,19.82,1.57,29.82.85s23.77-4.71,33.42-8.55c5.44-2.17,16.6-9.39,20.72-10.25ZM371.8,326h16.49c8.45,0,23.08-11.08,28.45-17.53,7.84-9.42,11.21-13.8-4.35-12.35s-36.87,13.55-40.59,29.88Z"/>
          <path class="cls-1" d="M418.1,246.66c-6.93-6.76-8.29-22.91-7.22-32.06,1.3-11.09,11.72-27.61,23.28-15.51,8.98,9.4,9.14,32.6,2.43,43.24-4.34,6.88-11.73,10.92-18.49,4.33Z"/>
          <path class="cls-1" d="M320.5,243.66c-2.95,2.97-7.39,4.24-11.4,2.58-15.94-6.59-14.18-51.44,2.48-53.03,17.93-1.71,20.42,38.84,8.92,50.46Z"/>
          <path class="cls-1" d="M458.73,192.99c-8.96-12.63-18.36-20.22-34.52-15.05-2.8.9-5.84,3.41-7.96,4.04-4,1.19,1.36-5.05,2.18-5.82,14.91-13.98,40.73-3.87,40.29,16.83Z"/>
          <path class="cls-1" d="M360.81,250c-8.49,5.6-21.37-1.17-28.44-.03-4.02.64-1.67,2.36-1.54,3.03,1.61,8.13,9.76,12.88,16,17.49l-2.01,1.51c-6.59-1.77-17.86-10.66-18.92-17.56-.89-5.84.27-8.45,6.42-8.52,3.49,2.28,28.24,2.66,28.49,4.08Z"/>
          <path class="cls-1" d="M302.85,172c8.02-3.16,20.97.73,22.98,9.99-3.06-.2-4.83-2.73-7.75-3.73-7.72-2.66-13.31-1.42-19.22,3.74-2.65,2.32-4.34,4.24-6.5,6.99-2.21-5.67,5.74-15.12,10.5-16.99Z"/>
          <path class="cls-3" d="M332.83,253c-.13,2.27,1.5,2.59,2.87,3.62,5.93,4.46,13.08,8.95,20.11,11.39-2.77,4.23-6.59,5.17-10.99,3.99l2.01-1.51c-6.24-4.61-14.4-9.36-16-17.49.67,0,1.33,0,2,0Z"/>
          <path class="cls-6" d="M360.81,250c.93,5.31-16.26,4.2-19.52,4.04-2.87-.14-5.33-1-8.46-1.04-.67,0-1.33,0-2,0-.13-.67-2.48-2.39,1.54-3.03,7.07-1.13,19.95,5.63,28.44.03Z"/>
          <path class="cls-2" d="M267.88,441.01c1.97,2.01-3.29,2.36-4.36,3.11-5.49,3.86-5.9,10.16-6.64,10.87-1.9,1.82-2.87-4.27-3.78-5.71-3.7-5.81-8.3-5.39-9.2-6.3-1.97-2.01,3.3-2.37,4.36-3.12,4-2.81,6.38-7.19,7.64-11.87l4.97,9.5c.86,2.21,6.73,3.22,7.01,3.5Z"/>
          <path class="cls-5" d="M371.8,326c3.72-16.33,24.84-28.41,40.59-29.88s12.19,2.92,4.35,12.35c-5.37,6.45-20,17.53-28.45,17.53h-16.49Z"/>
        </g>
        <g>
          <path class="cls-6" d="M595.63,404c1.35,3-5.35,8.71-6.98,4.48-1.25-3.23,4.99-4.42,6.98-4.48Z"/>
          <g>
            <path class="cls-5" d="M397.78,659c.13.08,1.52-.87,3-.54,5.96,1.32,11.81,3.8,17.99,3.54.19,6.41-1.81,12.53-4.15,18.36-8.44,21.08-37.01,58.51-62.87,53.2-3.85-.79-14.07-7.48-11.5-11.56.52-.82,13.46-8.95,16.03-11.03,10.89-8.85,23.8-23.51,31.9-35.08,3.15-4.5,6.82-9.67,8.6-14.89.84-.61,1.35-.28,1-2Z"/>
            <path class="cls-5" d="M366.8,645c9.51,4.01,23.49,9.2,30.98,14-1.52-.07-.75,1.28-1,2-.77.56-.97-.21-2.65,1.82-16.75,20.17-44.04,63.08-74.55,57.94-6.75-1.14-10.66-6.49-10.82-13.26-.05-2.15,1.45-11.18,2.58-12.5.78-.91,19.45-5.71,23-6.98,14.96-5.37,33.67-15.04,46.34-24.64,1.59-1.2,4.55-2.13,4.1-4.38-7.28,1.98-13.65,7.59-20.31,11.17-15.71,8.43-32.18,15.29-49.15,20.82-3.58.54,1.84-7.01,2.71-8.31,3.13-4.71,7.04-8.67,10.8-12.69l37.97-25Z"/>
            <path class="cls-6" d="M368.47,563.09c1.43-.46,24.4,6.71,29.12,7.58,12.31,2.27,24.73,3.26,37.22,3.75l8.49,36.56c-6.38,5.04-7.64,7-15.76,5.71-11.37-1.81-49.56-12.6-58.1-18.85-6.07-4.44-7.32-14.28-6.54-21.24.3-2.69,3.09-12.71,5.56-13.51Z"/>
            <path class="cls-3" d="M519.69,560c7.38-2.79,14.61-6.26,21.66-9.83l22.31-15.17c-2.13,33.91-29.78,78.93-64.9,85.55-8.23,1.55-15.72,1.46-24.03,1.45-.09-2.27,1.4-2.67,2.68-3.82,1.39-1.24,8.73-7.97,9.31-8.18,1.61-.59,3.68.96,6.06-1.44,1.06-1.06,3.52-8.73,3.93-10.56,9.92-10.52,19.4-23.81,22.98-38Z"/>
            <path class="cls-6" d="M428.76,620c-.96,9.5-28.21,30.33-35.63,30.7-3.03.15-31.88-13.21-33.74-15.78-4.87-6.72.39-29.92,8.89-33.9,19.38,8.45,39.55,15.36,60.48,18.98Z"/>
            <path class="cls-5" d="M351.81,646.01l-15,11.48c-4.56,5.21-10.55,9.79-15,14.99-2.65,3.09-11.6,17.74-12.65,18.34-7.81,4.46-36.54,2.76-40.53-7.07-6.01-14.82,13.85-22.31,24.44-26.03,18.3-6.42,39.46-10,58.74-11.7Z"/>
            <path class="cls-6" d="M446.75,546c-4.21,7.72-8.84,16.45-11.09,24.9-1.86,1.61-36.75-3.29-41.9-4.37-20.21-4.21-34.12-9.69-40.94-30.53,17.14,6.03,35.43,8.08,53.42,10.04l40.51-.04Z"/>
            <path class="cls-5" d="M244.9,642c5.03-2.21,9.48-5.2,14.96-6.53,28.85-7.03,63.74,3.43,93.4,4.61,1.73.07,2.91,2.47,2.57-1.08,1.07.7,3.57.2,2.99,2.99-25.05,2.28-51.51,5.94-74.91,15.54-2.25.92-11.57,6.33-12.35,6.29-1.83-.11-14-7.17-16.14-8.84-2.98-2.32-9.89-9.42-10.52-12.98Z"/>
            <path class="cls-3" d="M521.69,555c4.45-9.07,8.37-17.51,6.99-28l-7.99,1c.92-1.95,1.48-6.14,3.03-7.47,18.21-6.63,35.54-15.22,51.92-25.53-.26,14.34-5.27,28.84-15.97,38.51-10.69,9.66-24.73,16.18-37.98,21.49Z"/>
            <path class="cls-3" d="M463.73,625c14.27,1.06,26.86,1.43,40.96-1.99-2.78,7.15-10.17,12.82-16.26,17.22-11.59,8.37-25.19,14.12-38.93,18.04-4.71,1.34-21.39,5.88-25.13,4.8-1.06-.3-.58-3.05-2-4.17-.53-.42-4.48-1.6-5.61-1.9,18.02-7.6,36.5-16.04,50.95-29.51l-3.99-2.49Z"/>
            <path class="cls-5" d="M463.73,625l3.99,2.49c-14.45,13.48-32.93,21.92-50.95,29.51-5.79-1.51-13.21-1.49-18.98-4.5,13.1-8,27.63-16.29,33.94-31.07,10.73,1.03,21.22,2.76,32.01,3.57Z"/>
            <path class="cls-5" d="M514.69,530c-5,10.56-14.18,27.67-17.48,38.01-3.68,11.54-3.51,26.25-7.52,37.98-1.88.27-.64-2.02-.99-2.99l-2-37c3.06-.35,6.01,1.39,8.97,1.51-2.08-2.52-4.15-3.58-7.44-3.57-1.34,0-5.43,2.44-4.52-.42,2.98-9.37,9.46-21.65,13.97-30.52l16.99-3Z"/>
            <path class="cls-5" d="M352.82,536c-.25-.77-3.36-6.91-1.49-7.01,32.71,9.71,66.55,11.36,100.41,8.02.77.67-4.33,7.77-4.99,8.99l-40.51.04c-17.99-1.96-36.27-4.01-53.42-10.04Z"/>
            <path class="cls-5" d="M489.71,538c-4.74,10.03-8.11,21.25-12.49,31-1.5,3.34-5.15,5.77-5.35,6.14-.17.33,1.07,4.85.84,7.34-1.02,11.2-4.6,22.36-6,33.52-2.07-1.24-2.47-5.73-2.99-7.99,3.02-10.87-1.13-22.01,0-33,2.77-.6,3.98-.45,6.99-.01-1.09-3.01-4.26-3.35-6.99-2.99l14.99-34c3.41-.43,8.08-2.37,10.99,0Z"/>
            <path class="cls-6" d="M355.81,639c.34,3.54-.84,1.14-2.57,1.08-29.66-1.18-64.55-11.63-93.4-4.61-5.47,1.33-9.93,4.33-14.96,6.53-1.01-5.69,1.84-8.52,6.62-10.88,22.32-11.03,65.74.44,89.95,4.73,5.66,1,9.28-.15,14.35,3.14Z"/>
            <path class="cls-5" d="M486.72,610c-.58.21-7.93,6.94-9.31,8.18-1.28,1.15-2.77,1.55-2.68,3.82-12.45-.02-24.77-.92-36.97-3.5,2-1.47,5.12-4.29,7.57-4.55,1.8-.2,1.18,1.8,2.09,2.03,10.53,2.63,4.3-12.59,10.31-16.98.74,4.24,3.93,26.13,11.59,20.09,3.93-3.1,7.48-38.27,8.41-45.08,1.45-.06,1.51,3.61,1.7,4.79,1.65,10.58,2.05,21.64,7.29,31.21Z"/>
            <path class="cls-5" d="M520.69,528l7.99-1c1.38,10.49-2.54,18.93-6.99,28-5.15,2.06-10.19,5.25-16,5.49,5.16-10.76,9.92-21.71,15-32.49Z"/>
            <path class="cls-5" d="M519.69,560c-3.59,14.19-13.06,27.48-22.98,38,1.87-8.32,1.99-18.84,4.11-27.38.43-1.74,1.01-3.34,1.82-4.91,1.85-2.24,13.46-4.35,17.05-5.71Z"/>
            <path class="cls-5" d="M470.73,540c-5.45,11.36-13.33,21.32-18,33-.35.27-6.25-3.8-7.98-4,1.42-10.37,9.95-18.09,11.99-28,1.08-1.79,11.38-.72,13.99-1Z"/>
            <path class="cls-5" d="M350.82,553c5.75-3.42,4.28-.63,8,3.5,1.19,1.33,4.84,2.01,3.53,4.53-.63,1.21-20.68,15.4-22.15,15.87-1.83.39-3.59-4.81-5.37-5.89,2.22-7.68,15.84-9.42,15.99-18Z"/>
            <path class="cls-5" d="M334.83,526c-2.63,5.47,7.33,6.24,7.99,11-6.63,4.61-14.08,8.14-20.65,12.9-1.65.24-4.77-5.43-6.33-6.9.42-.22,6.85-5.41,7.35-5.91,1.69-1.7.48-2.48-1.36-2.09,4.74-3.6,7.95-5.9,12.99-9Z"/>
            <path class="cls-5" d="M312.84,545c3.12.45,7.4,5.12,6.59,8.02l-19.56,27.5c-4.22,1.98-.83-4.56-.02-6.52,4.01-9.63,7.69-19.88,12.99-29Z"/>
            <path class="cls-5" d="M443.75,572c4.95-.09,4.61,1.51,9.03,2.56l-2.04,36.45c-1.83,2.34-3.71-5.29-3.99-6,1.66-1.3,1.16-4.61.98-6.49-.84-8.8-3.32-17.66-3.98-26.51Z"/>
            <path class="cls-5" d="M296.86,516c2.43,1.87,5.61,6.1,4.82,9.24l-17.83,26.75-1.99-.5c.72-2.59,1-4.94,2.01-7.49,3.39-8.54,8.2-20.22,12.99-28Z"/>
            <path class="cls-5" d="M330.83,571c2.2,1.8,7.27,5.27,6.85,8.25-5.75,10.12-11.3,21.08-18.84,29.75-.4-3.3,1.51-7.07,1.99-10,.96,2.51,1.5-1.1,1.73-1.76,2.92-8.68,6.2-17.3,8.27-26.24Z"/>
            <path class="cls-6" d="M366.8,645l-37.97,25c9.99-10.67,21.51-20.26,34.49-26.96,1.48-.01,2.42,1.51,3.48,1.96Z"/>
            <path class="cls-6" d="M310.85,508c-.65.36-1.37.61-2,1-3.58,2.2-5.83,3.7-9.99,5-.44.14-1.43-.32-1.88.13s.04,1.61-.12,1.87c-4.79,7.78-9.6,19.46-12.99,28,.9-6.82,5.2-25.27,9.54-29.95,1.77-1.91,13.34-7.18,15.9-7.04.89.05,1.25.88,1.54.99Z"/>
            <path class="cls-6" d="M443.75,572c.66,8.86,3.14,17.72,3.98,26.51.18,1.87.68,5.18-.98,6.49-4-10.16-6.67-22.11-7-33,1.33-.03,2.67.03,4,0Z"/>
            <path class="cls-5" d="M315.84,519c-1.73.55-11.49,4.47-11.98,4,.03-3.76-3.16-6.12-5.01-9,4.16-1.3,6.41-2.8,9.99-5,.6,4.35,6.42,5.67,6.99,10Z"/>
            <path class="cls-6" d="M486.72,566l2,37c-2.68-7.56-4.67-16.3-5.04-24.46-.18-3.95-1.48-12.03,3.04-12.54Z"/>
            <path class="cls-6" d="M478.72,538l-14.99,34c-.11.01-.71,1.45-1.99,1-.23-1.69.24-3.21.68-4.81,1.31-4.73,10.52-25.96,13.3-29.19.3-.35.7-.64,1-1,.66-.05,1.35.08,2,0Z"/>
            <path class="cls-3" d="M497.71,533c.58-1.14-.21-3.81,1.68-5.08,1.34-.9,15.41-5.28,17.88-5.87,4.03-.95-2.21,7.18-2.57,7.94l-16.99,3Z"/>
            <path class="cls-3" d="M334.83,526c.95-.59,1.59-2.66,2.6-2.9.43-.1,8.02,2.67,8.25,3.04.22.35,1.14,7.81,1.03,8.21-.46,1.64-2.76,1.86-3.89,2.65-.67-4.76-10.62-5.53-7.99-11Z"/>
            <path class="cls-3" d="M475.72,538c1.97-8.61,11.66-6.21,18.47-9.01-.09,3.29-3.26,6.42-4.48,9.01-2.91-2.37-7.58-.43-10.99,0-.65.08-1.34-.05-2,0h-1Z"/>
            <path class="cls-6" d="M456.74,541c-2.04,9.91-10.57,17.63-11.99,28-1.51-.18-2.66.54-3.99,1-1.51-1.9,12.68-26.43,14.98-30l1,1Z"/>
            <path class="cls-6" d="M463.73,575c-1.13,10.99,3.02,22.13,0,33-2.44-10.78-3.44-21.92-2.96-32.98.94-.25,2.12.16,2.96-.02Z"/>
            <path class="cls-6" d="M334.83,571c-.84-.51-4.29-1.5-4,0-2.06,8.94-5.35,17.56-8.27,26.24-.22.66-.76,4.27-1.73,1.76,1.27-7.79,2.75-20.72,7.16-27.38,2.16-3.27,18.89-16.28,22.82-18.62-.14,8.58-13.77,10.32-15.99,18Z"/>
            <path class="cls-3" d="M455.74,540c.51-.79.38-3.33,1.17-3.83.65-.42,13.49-2.15,15.3-2.2,3.34-.1-.98,4.98-1.48,6.04-2.6.28-12.91-.79-13.99,1l-1-1Z"/>
            <path class="cls-6" d="M321.84,535c1.84-.39,3.05.38,1.36,2.09-.5.5-6.94,5.69-7.35,5.91-.56.3-2.64-.3-3,0-.23.19.23,1.6,0,2-5.3,9.12-8.98,19.37-12.99,29,1.46-8.02,4.42-22.75,9.52-28.99,1.4-1.71,3.28-1.81,3.47-2.01,4.24-4.61,3.98-4.2,8.99-8Z"/>
            <path class="cls-3" d="M310.85,508c4.27,1.54,8.59,6.47,12.99,8.5-2.17,1.83-5.59,1.72-7.99,2.5-.58-4.33-6.39-5.65-6.99-10,.63-.39,1.35-.64,2-1Z"/>
            <path class="cls-5" d="M475.72,539v-1h1c-.3.36-.7.65-1,1Z"/>
          </g>
          <g>
            <path class="cls-2" d="M574.65,346c3.54,12.69,6.63,25.75,6.98,39-.89,1.2-20.95-15.9-24.49-16.99-1.26-.39-2,.24-1.47,1.47,1.95,4.54,19.7,16.5,24.33,20.43l.64,2.07c-30.93,12.23-46.64,50.36-42.97,82.02-6.93-5.84-13.83-11.81-20-18.47-3.08-3.33-5.85-8.16-8.66-11.3-1.22-1.37-.82-1.59-3.31-1.22,3.67,6.97,7.81,14.02,12.99,19.99,5.57,16.64,10.96,31.96,8.99,50-40.85,15.65-85.54,23.2-129.39,19.99-2.43-.18-17.79-1.9-18.56-2.42-2.45-1.67-.03-7.67.05-10.08.91-26.34,2.15-52.65,4.03-78.97.6-3.31,5.1-5.43,7.97-6.52,5.16-1.97,36.77-9.48,37.84-11.13.86-1.33-.34-7.68.13-9.86.93-1.08,4.26,2.7,5.02,3.47,2.07,2.12,9.98,13.01,11.6,13.32,21.04-7.8,41.12-20.36,59.64-32.98,16.85-11.48,35.56-24.83,51.54-37.42,5.85-4.61,11.25-9.79,17.09-14.4ZM440.75,444c2.01-2.07,5.22-1.18,3.99-6-2.51-1.13-1.62,1.7-2.67,2.01-.83.25-1.98-.18-2.32-.02-1-2.34-2.95-.23-4.13.37-1.91.98-10.52,5.6-10.85,7.15-.49,2.23,7.25,6.47,8.99,3.48h1c-1.04,5.49.87,9.85,6.99,8.99-.6-3.08-2.64-3.85-3.02-7.47-.32-3.11-.24-6.19,2.02-8.52ZM443,444.26c-5,4.7-1.27,16.09,6.75,12.23,7.26-3.5.63-19.16-6.75-12.23ZM466.55,445.14c-.33-.21-7.52.05-7.85.27-1.96,1.34-2.15,8.22-1.97,10.6h2.99s0-5.01,0-5.01h2.99c.23,1.12-.31,4.69,0,5.01.83.87,21.03.31,23.99,1l1.48-6.01c1.13,3.47-1.07,7.06,4.23,6.81,4.44-.21-.18-6.05,2.27-8.79-4.14.28-6.62-.22-8.5-4.01-.45-.12-5.07,3.93-5.24,4.22-.87,1.52.46,4.41-.76,4.78-3.03.92-.74-6.28-1.49-7.01-3.26-.9-8.51,2.2-11.02.5-.67-.45-.74-2.1-1.15-2.36ZM402.77,454.6c0-4.23-3.43-7.66-7.66-7.66s-7.66,3.43-7.66,7.66,3.43,7.66,7.66,7.66,7.66-3.43,7.66-7.66ZM402.22,499.49c0-4.27-3.46-7.73-7.72-7.73s-7.72,3.46-7.72,7.73,3.46,7.73,7.72,7.73,7.72-3.46,7.72-7.73Z"/>
            <path class="cls-2" d="M311.85,438c.64-15.28-.69-29.16-7.47-43.03-1.26-2.58-9.53-13.91-8.53-14.97,2.79.66,14.64-4.13,15.94-2.96.17.15.35,2.91,1.18,4.31,7.14,12.02,18.33,22.09,25.85,32.65.28.4-.21,3.5,1.54,4,2.34.67,5.61-4.98,10.11,1.84l23.32,12.16c2.61,2.39,6.71,4.55,7.04,8.44-.96,19-3.35,38.02-4.09,57.02-.34,8.76,1.42,22.18.04,30.04-.18,1-.46,2.14-1.58,2.41-.87.21-15.07-3.72-17.41-4.41-14.08-4.13-28.89-10.55-40.51-19.53,1.65-9.43,5.2-18.41,7.22-27.78,3.98-18.37,6.99-45.84,2.65-64.03-.33-1.37-.67-4.95-2.33-5.15-.33,8.62.41,17.38-.01,25.99-4.74-.82-8.32,2.99-12.99,3Z"/>
            <path class="cls-2" d="M551.66,483.99c-.75.86-11.43-6.68-11.96-9.52-1.95-10.42,2.3-30.66,6.21-40.74,5.48-14.14,17.91-31.41,31.7-38.28,7.67-3.82,8.08-1.28,14.01,4.04-3.68,3.5-8.52,5.36-12.45,8.52-20.86,16.8-31.11,49.88-27.51,75.97Z"/>
            <path class="cls-6" d="M391.79,435c10.1-8,23.17-11.19,34.54-17l-1.56-19c3.05,2.32,5.88,5.19,8.5,7.99,2.8,3,12.14,15.63,15.03,16.04,1.31.19,2.27-.17,3.47-.49,6.38-1.68,25.68-12.59,32.62-16.37,32.1-17.45,62.14-39.2,88.78-64.16,2.42-1.04,1.19,2.94,1.49,3.99-5.84,4.61-11.24,9.79-17.09,14.4-15.99,12.59-34.69,25.94-51.54,37.42-18.52,12.62-38.6,25.18-59.64,32.98-1.62-.31-9.53-11.2-11.6-13.32-.76-.77-4.09-4.55-5.02-3.47-.48,2.18.72,8.54-.13,9.86-1.07,1.66-32.68,9.16-37.84,11.13Z"/>
            <path class="cls-6" d="M518.69,463c6.74,7.76,23.94,23.08,32.96,27.51,9.63,4.73,9.79.55,18.99-.51.36,1.81-.89,2.49-2.06,3.43-10.21,8.28-28.57,14.84-40.91,19.56,1.96-18.04-3.42-33.36-8.99-50Z"/>
            <path class="cls-2" d="M308.85,439l-11.99,2c1.39-14.39.1-30.05-6.12-43.38-.89-1.9-9.49-14.03-8.87-14.62,9.14-1.68,10.86-2.3,16.01,5.47,9.95,15,12.04,33.22,10.97,50.52Z"/>
            <path class="cls-2" d="M355.81,394c-2.79-2.85-12.62,7.95-14.55,9.98-1.74,1.83-1.02,4.65-3.96,2.05-6.82-6-13.31-19.45-19.31-26.76-.37-2.29,6.21-16.59,7.02-17.05,4.35-2.49,1.74,1.62,1.74,3.32,0,2.87,9.38,11.61,12.07,13.99,6.02,5.34,11.35,8.67,17,14.49,1.87,1.92,5.55,3.82,6.8,7.69l13.18,26.3-23.55-17c-.91-1.76,5.25-13.54,3.57-16.99Z"/>
            <path class="cls-6" d="M324.84,435c-.23,4.59-1.51,24.49-3,27.25-.68,1.25-11.63,5.22-13.61,5.65s-1.48-.85-1.31-2.32c1.04-9.18,4.47-16.56,4.93-27.58,4.67-.01,8.26-3.82,12.99-3Z"/>
            <path class="cls-6" d="M308.85,439c-.39,6.3-1.65,27.71-7.71,30.78-1.26.64-8.03,1.95-9.84,2.17-1.5.18-1.7.19-1.45-1.45.69-4.41,4.32-11.87,5.52-17.49.95-4.45,1.07-7.64,1.49-12.01l11.99-2Z"/>
            <path class="cls-6" d="M373.8,432l-23.32-12.16c-4.51-6.83-7.77-1.17-10.11-1.84-1.76-.5-1.26-3.6-1.54-4l11.98-14c1,4.34-4.84,10.3-2.51,14.02.5.8,13.43,8.41,15.83,10.17,3.38,2.48,6.58,4.98,9.68,7.81Z"/>
            <path class="cls-6" d="M285.86,467c.64,4.48-4.22,6.77-5.98,2.48-.95-2.31,4.96-2.62,5.98-2.48Z"/>
            <path class="cls-6" d="M561.65,486.01c2.24,2.69-7.14,3.69-5.98-2.01.53-.51,5.77,1.76,5.98,2.01Z"/>
            <path class="cls-2" d="M570.63,315c1.82,1.59,7.76,14.69,6.09,17.53-1.15,1.96-9.71,9.82-12.05,11.98-32.82,30.33-74.47,54.12-114.52,73.5-3.35.21-10.17-10.17-12.89-13.03-2.16-2.27-12.6-13.96-15.46-11.96-2.32,1.62-.44,19.16-.13,22.89-11.54,2.63-21.1,10.5-31.86,14.6,8.98-13.77,18.56-27.18,29.6-39.37,36.55-12.92,73.96-24.36,108.3-42.62,10.91-5.8,37.41-20.52,40.94-32.05.33-1.09.2-3.03,1.99-1.47Z"/>
            <path class="cls-2" d="M376.3,429c.65.33.65.67,0,1v-1Z"/>
            <path class="cls-1" d="M466.55,445.14c.41.25.48,1.9,1.15,2.36,2.51,1.7,7.76-1.4,11.02-.5.74.73-1.55,7.93,1.49,7.01,1.21-.37-.12-3.27.76-4.78.17-.29,4.79-4.34,5.24-4.22,1.88,3.78,4.36,4.29,8.5,4.01-2.45,2.74,2.16,8.58-2.27,8.79-5.3.26-3.1-3.34-4.23-6.81l-1.48,6.01c-2.96-.69-23.16-.13-23.99-1-.31-.32.23-3.89,0-5.01h-2.99s0,5.01,0,5.01h-2.99c-.18-2.38,0-9.26,1.97-10.6.32-.22,7.51-.47,7.85-.27Z"/>
            <path class="cls-1" d="M443,444.26c7.37-6.93,14.01,8.73,6.75,12.23-8.01,3.86-11.74-7.54-6.75-12.23Z"/>
            <path class="cls-1" d="M402.77,454.6c0,4.23-3.43,7.66-7.66,7.66s-7.66-3.43-7.66-7.66,3.43-7.66,7.66-7.66,7.66,3.43,7.66,7.66ZM399.07,454.79c0-2.26-1.83-4.09-4.08-4.09s-4.08,1.83-4.08,4.09,1.83,4.09,4.08,4.09,4.08-1.83,4.08-4.09Z"/>
            <path class="cls-1" d="M402.22,499.49c0,4.27-3.46,7.73-7.72,7.73s-7.72-3.46-7.72-7.73,3.46-7.73,7.72-7.73,7.72,3.46,7.72,7.73ZM398.96,499.48c0-2.36-1.91-4.27-4.27-4.27s-4.27,1.91-4.27,4.27,1.91,4.27,4.27,4.27,4.27-1.91,4.27-4.27Z"/>
            <path class="cls-1" d="M439.75,440c-3.73,1.83-5.02,7.32-6,11-1.73,3-9.47-1.25-8.99-3.48.34-1.55,8.95-6.17,10.85-7.15,1.17-.6,3.12-2.71,4.13-.37Z"/>
            <path class="cls-1" d="M440.75,444c-2.26,2.33-2.35,5.42-2.02,8.52.38,3.62,2.42,4.4,3.02,7.47-6.12.85-8.03-3.5-6.99-8.99.35-1.85,6.41-12.82,6-7Z"/>
            <path class="cls-6" d="M439.75,440c.34-.17,1.49.26,2.32.02,1.05-.31.16-3.14,2.67-2.01,1.23,4.82-1.98,3.93-3.99,6,.41-5.82-5.65,5.15-6,7h-1c.97-3.68,2.27-9.17,6-11Z"/>
            <circle class="cls-2" cx="394.99" cy="454.79" r="4.08"/>
            <circle class="cls-2" cx="394.69" cy="499.48" r="4.27"/>
          </g>
        </g>
      </g>
      <g>
        <path class="cls-4" d="M209.92,327c.55,15.77-14.58,33.97-27.07,42.41-6.15,4.15-9.99,7.81-12.9-1.4,10.46-2.88,21.94-16.06,26.84-25.65,10.34-20.24,4.52-48.71-18.87-55.83-15.94-4.85-37.46,4.88-32.48,23.51,3.06,11.46,20.91,15.34,23.52,1.97-6.94,1.78-8.16-8.8-3-10.01,3.94,2.2,8.23,5.18,9.01,9.99l.99-3.99c3.62,12.07-8.93,21.36-20.24,19.77-23.63-3.34-23.29-33.29-3.75-45.77,29.47-8.36,56.92,15.47,57.96,45Z"/>
        <path class="cls-4" d="M105,340c.1-3.25-1.54-5.9-.81-9.27s3.84-2.77,3.81-5.73c7.82.91,2.62,10.44,3,10.99,17.71,5.41,22.35-19.37,6.68-26.18-14.82-6.43-32.6,6.62-34.58,21.77-4.91,37.53,32.32,52.98,63.86,46.41-.26,1.44.44,6.45-.05,6.96-.4.42-9.99,1.91-11.46,2.03-11.3.94-32.57-1.12-40.45-9.98-4.7-5.28-11.93-14.81-14.04-21.45-7.47-23.42,3.97-48.21,28.03-54.55,7.36.38,13.99,1.42,19.47,7.01,16.45,16.78-2.23,44.17-20.87,34.86-1.56-.78-1.84-2.21-2.6-2.87Z"/>
        <path class="cls-4" d="M192.93,492c1.69,4.78,5.39,10.93,7.46,16.03,1.42,3.49,9.73,23.76,9.59,25.46-.08,1-.3,1.39-1.07,2.01-1.07.87-21.02,8.88-23.43,9.54-1.7.46-3.87,1.72-5.58.53-.56-.39-4.04-9.34-3.87-9.99.56-2.16,15-5.4,15.82-8.23.38-1.32-1.88-6.25-2.9-6.86-2.58-1.53-6.39,1.46-5.04-3.81.27-1.04,2.65-1.07,2.94-2.24.49-1.96-2.23-8.6-5.16-8.28-9.59,1.05-14.26,13.69-18.74-2.16l29.98-12Z"/>
        <path class="cls-4" d="M229.91,544c-3.82,3.08-8.49,3.04-11.21-1.29l-37.71-94.64c4.46-.17,8.92-8.06,11.46-9.07,1.72-.68,1.97,1.86,2.48,2.99-2.93-.58-2.04,1.58-2.03,3.48.06,13.99,23.74,68.32,30.52,84.5,1.99,4.75,4.45,9.3,6.48,14.01Z"/>
        <path class="cls-6" d="M194.93,442c13.87,30.66,24.13,64.93,37.57,95.99.93,2.94-.51,4.33-2.6,6.01-2.03-4.71-4.49-9.27-6.48-14.01-6.78-16.18-30.46-70.51-30.52-84.5,0-1.91-.9-4.06,2.03-3.48Z"/>
        <path class="cls-4" d="M102.88,283.08c2.49-3.04-.86-7.16-.87-10.58-.04-12.54,13.49-21.5,24.96-16.99,5.92,2.33,7.9,7.14,10.88,12.13,1.82,3.06.95.74,1.81-.8,2.26,9.59-2.63,19.43-11.64,23.41s-19.57.97-25.13-7.17ZM133.61,271.8c0-7.6-6.16-13.76-13.75-13.76s-13.75,6.16-13.75,13.76,6.16,13.76,13.75,13.76,13.75-6.16,13.75-13.76Z"/>
        <path class="cls-4" d="M172.95,349c9.87,1.55,4.78,13.46-2.97,15.52-16.11,4.29-23.73-18.98-9.38-27.38,9.7-5.67,20.79,1.7,26.6-1.37,5.68-3.01,1.49-9.49-.26-7.78-.43.43.39,5.8-4.03,3.53s-1.4-9.54,4.36-9.22c9.07.5,11.67,12.17,4.37,16.93-6.07,3.95-11.16.23-17.23-.21s-14.78,1.5-16.24,8.71c-3.38,16.68,20.03,17.88,14.76,1.28Z"/>
        <path class="cls-4" d="M110,354c2.05.83,4.08.79,2.91,4.39-1.11,3.42-7.76-1.05-6.9,3.09.81,3.94,7.87,2.69,10.63.16,5.7-5.23,8.19-14.09,18.92-14.59,16.97-.79,22.13,28.04,2.83,28.89-6.95.3-13.79-8.19-7.9-10.94,1.92-.89,2.16,3.82,3.91,5.07,10.61,7.59,17.82-14.81,4.02-17.02-16.19-2.59-16.2,14.8-26.17,16.73-4.82.93-9.5-1.16-11.25-5.79l4.53-7.97,4.46-2.03Z"/>
        <path class="cls-6" d="M109,301c-24.06,6.34-35.5,31.13-28.03,54.55,2.12,6.63,9.34,16.16,14.04,21.45-19.79-12.18-27.38-38.34-15.52-59.03,6.26-10.91,17.18-17.6,29.51-16.97Z"/>
        <path class="cls-6" d="M209.92,327c-1.03-29.53-28.49-53.36-57.96-45,29.29-18.7,65.4,13.23,57.96,45Z"/>
        <path class="cls-6" d="M139.65,266.84c-.86,1.54.02,3.86-1.81.8-2.97-4.99-4.96-9.8-10.88-12.13-11.48-4.51-25,4.45-24.96,16.99.01,3.42,3.37,7.54.87,10.58-4.63-6.78-4.77-15.68-.33-22.59,4.43-6.91,12.56-10.51,20.65-9.12s14.57,7.48,16.45,15.47Z"/>
        <path class="cls-6" d="M162.96,504c-.26-.92-1.86-2.17-.92-3.93,4.28-.29,29.74-13.27,30.89-12.07.33.35-.31,3.12,0,4l-29.98,12Z"/>
        <path class="cls-4" d="M169.95,378c-.45,1.35-16.02,1.21-18.98,3-.29-2.85.47-4.74,1.99-7,3.17,2.06,6.22-1.43,9.26-.8,2.46.51,4.77,4.64,7.73,4.8Z"/>
        <path class="cls-4" d="M143.97,266c-.47,4.61,6.1-.33,8.02,1.41l4.97,3.59c.07.41,1.8,1.21.57,3-.73,1.07-5.42,3.23-6.87,2.88-2.98-.72-2.16-4.46-3.21-5.89-.64-.88-6.55-1.54-3.48-4.98Z"/>
        <path class="cls-4" d="M98,285c4.02-.08.9,1.75,1.28,4.37.41,2.77,4.35,6.57-.52,8.89-3.59,1.71-4.5,1-6.76-1.26,3.38.33.63-3.12,2.21-6.25,1.09-2.16,3.67-3.06,3.78-5.75Z"/>
        <path class="cls-6" d="M152.96,374c5.59-8.31,18.92-1.83,16.99,4-2.95-.15-5.26-4.29-7.73-4.8-3.04-.63-6.09,2.85-9.26.8Z"/>
        <path class="cls-6" d="M108,325c.03,2.96-3.07,2.28-3.81,5.73s.92,6.02.81,9.27c-.16-.14-1.25.16-1.67-.3-4.42-4.86-3.04-15.6,4.67-14.7Z"/>
        <path class="cls-6" d="M98,285c-.11,2.69-2.69,3.59-3.78,5.75-1.58,3.13,1.17,6.58-2.21,6.25-4.96-4.96-.49-11.87,6-12Z"/>
        <path class="cls-6" d="M156.96,271l-4.97-3.59c-1.92-1.73-8.48,3.2-8.02-1.41,2.69-3.03,10.59-2.66,12.49,1.04.76,1.48.29,2.69.5,3.96Z"/>
        <path class="cls-6" d="M110,354l-4.46,2.03-4.53,7.97c-2.36-6.24,2.02-12.84,8.99-10Z"/>
        <path class="cls-6" d="M175.95,308l-.99,3.99c-.78-4.81-5.06-7.8-9.01-9.99,5.62-1.32,8.48.96,9.99,6Z"/>
        <path class="cls-1" d="M133.61,271.8c0,7.6-6.16,13.76-13.75,13.76s-13.75-6.16-13.75-13.76,6.16-13.76,13.75-13.76,13.75,6.16,13.75,13.76ZM126.67,278.68c4.66-4.27,2.92-14.44-4.24-15.62-8.99-1.47-13.1,3.73-11.41,12.42,1.28,6.6,11.4,7.09,15.65,3.2Z"/>
      </g>
    </g>
  </g>
</svg>