<?xml version="1.0" encoding="UTF-8"?>
<svg id="Capa_2" data-name="Capa 2" xmlns="http://www.w3.org/2000/svg" viewBox="0 0 129.68 121.86">
  <defs>
    <style>
      .cls-1 {
        fill: #e09e7d;
      }

      .cls-2 {
        fill: #374058;
      }
    </style>
  </defs>
  <g id="Capa_1-2" data-name="Capa 1">
    <g>
      <path class="cls-2" d="M33.97,49.65c.53-5.57,4.08-10.79,8.11-14.49,1.85-1.7,4.39-2.92,5.72-5.06,2.93-.64,5.54-3.95,7.97-5.23.23-.12.43-.14.69-.12.19,2.01,1.6,3.94,2.17,5.85,3.5,11.55.45,22.98-6.35,32.55-1.47,2.06-2.79,3.23-3.97,5.67-5.08,10.46-4.5,22.77-1.33,33.68.35,1.19,1.07,2.62,1.34,3.72.1.41.12.41-.24.69-1.35-1.56-2.89-2.98-4.23-4.54-4.9-5.69-8.5-12.58-10.51-19.73-.63-2.25-.8-5.06-.97-7.4-.21-.21-3.6.44-4.24.47-10.95.6-19.53-2.19-27.43-9.78-.21-.21-.69-.31-.7-.45,0-.56,2.5-2.02,3.07-2.45,7.81-5.76,16.4-13.03,27.04-10.91,1.3.26,2.54.91,3.85,1.08.08-1.15-.11-2.42,0-3.56Z"/>
      <path class="cls-1" d="M56.23,76.84c.02,1.02-1.85,5.66-2.19,7.34-1.05,5.2-1.09,10.86-.11,16.07-.9,2.1-1.78,4.22-2.8,6.26-.16.32-.25.54-.53.17-4.93-12.82-5.91-28.62,1.61-40.62.99,1.54,1.73,3.27,2.35,4.99.44,1.23,1.65,4.68,1.67,5.79Z"/>
      <g>
        <g>
          <path class="cls-2" d="M56.23,76.84l3.47-6.18,3.87.9c.6-5.27,1.51-10.5,2.27-15.75,2.5-17.26,4.77-34.27,7.58-51.4.37-1.71-.46-4.19,2.02-4.4,3.54-.31,2.03,4.13,1.74,6.1-.08.55-.19,1.03-.27,1.56-3.29,21.46-7.27,42.82-10.81,64.24.21.32,1.06-.21.91.45l-5.72,22.76c-.07.9.09,2.22,1.02,2.61L85.83,2.66c1.68-1.19,3.99-.77,4.12,1.53l-18.57,67.73c-.02.38-.08.36.29.29.69-.12,1.36-.44,2.08-.4,1.3.07,3.52,1.09,3.82,2.51-.17.17-1.48-.87-1.84-1.03-4.05-1.81-5.35,1.76-5.9,5.11-1.73,10.56,3.53,31.23,10.83,39.3,2.92,3.22,6.8,4.58,8.61-.46.57.28.09,1.64-.14,2.04-.29.53-1.86,2.2-2.4,2.42-1,.4-1.76-.08-2.63-.1-6.92-.21-15.1-.93-21.38-4.09-.83-.42-2.08-1.2-2.72-1.87-2.39-2.47-5.4-11.85-6.07-15.39-.99-5.21-.94-10.87.11-16.07.34-1.68,2.21-6.32,2.19-7.34Z"/>
          <g>
            <path class="cls-1" d="M89.5,105.07c-.44.39-.14,1.13-.28,1.67-.74,2.95-5.7,6.49-8.64,7.03l-4.36-8.1,3.51-3.84,3.81-5.94c1.46,2.92,3.89,6.6,5.97,9.18Z"/>
            <path class="cls-1" d="M79.64,83.5c-.14,3.09,1.51,6.79,2.75,9.64-1.33,2.55-2.55,4.96-4.37,7.22-.39.48-2.46,3.08-2.97,2.65-1.34-4.39-2.79-8.78-3.23-13.39,2.15-1.22,4.23-2.64,5.99-4.39.61-.61.94-1.58,1.83-1.73Z"/>
            <path class="cls-1" d="M71.37,80.86c.4-4.15,2.79-7.72,6.78-4.02,1.71,1.59,1.4,1.95.29,3.98-1.33,2.44-4.47,5.37-7.07,6.35.14-2.03-.19-4.31,0-6.31Z"/>
            <path class="cls-1" d="M89.27,110.81c.23,4.52-2.36,9.4-6.88,4.93,2.6-1.36,4.85-2.79,6.88-4.93Z"/>
          </g>
        </g>
        <path class="cls-2" d="M79.64,83.5c.38-8.13,2.76-17.17,5.63-24.78.69-1.84,2.08-3.96,3.09-5.68.62-1.07,3.21-5.91,3.74-6.43,4.29-4.2,9.51-10.13,15.01-12.87.72-.36,1.88-.92,2.66-.68.48.14,3.7,2.75,4.3,3.28,9.23,8.17,14.88,21.22,15.6,33.51.11,1.89-.29,1.31-1.13,2.36-1.23,1.53-2.01,2.66-3.58,3.95-6.08,4.96-14.32,5.59-21.91,5.29,0,.33.65.45.93.56,6.87,2.8,14.45,2.63,21.1-.56.1,3.41-.04,6.8-.76,10.14-2.2,10.29-9.4,19.62-19.29,23.63-1.49.61-2.05.97-3.64.12-4.26-2.29-8.83-6.45-11.88-10.25-2.07-2.58-4.51-6.26-5.97-9.18-.36-.73-.78-1.92-1.15-2.75-1.24-2.85-2.9-6.55-2.75-9.64ZM100.97,56.75c0-2.28-1.85-4.13-4.13-4.13s-4.13,1.85-4.13,4.13,1.85,4.13,4.13,4.13,4.13-1.85,4.13-4.13Z"/>
      </g>
    </g>
  </g>
</svg>