<?xml version="1.0" encoding="UTF-8"?>
<svg id="Capa_2" data-name="Capa 2" xmlns="http://www.w3.org/2000/svg" viewBox="0 0 206.77 122.14">
  <g id="Capa_1-2" data-name="Capa 1">
    <path d="M175.03,83.58c-1.73,16.39-16.05,31.96-31.79,36.21-12.67,3.42-64.47,2.4-79.76,1.34-17.4-1.21-30.72-11.73-37.63-27.37-1.45-3.27-2.19-8.82-3.78-11.22-3.15-4.77-11.38-5.78-16.58-16.42C-4.97,44.73-1.85,21.76,26.87,24.91c2.11-7.35,8.93-13.13,16.65-13.84,3.48-.32,8.9,1.36,10.78.86,3.89-1.03,6.47-9.12,17.07-8.78,2.53.08,8.5,2.69,9.16,2.64.78-.06,7.49-5.74,13.99-5.71,4.53.02,8.69,3.55,11.16,3.77,1.67.15,8.33-3.78,12.84-3.86,5.88-.1,8.01,3.59,12.09,4.06,4.54.52,12.89-1.34,18.89-.97,14.24.87,45.83,9.73,54.51,21.5,10.77,14.61-13.66,17.96-13.85,19.97,6.74,13.59,1.95,26.89-15.14,21.53-.43,5.63.58,11.97,0,17.5ZM110.07,46.06c-2.29-6.96-6.81-14.42-7.79-21.75-.91-6.84,2.76-16.79-6.85-17.18-3.81-.16-10.66,3.61-11.39,7.46-2.5,13.15,5.76,27.42,10.94,38.99l-6.31,2.39c-6.03-9.65-11.78-23.85-12.65-35.42-.17-2.26.99-7.78.57-8.48-2.74-4.49-14.5-.35-16.12,4.95-4.38,14.35,8.74,34.14,11.56,48.05-3.23-.47-5.4,2.03-7.42-1.05-2.72-4.16-7.6-18.64-9.09-23.94-1.6-5.73-2.11-14.96-3.7-19.3-1.7-4.64-10.43-2.59-13.74-.13-13.77,10.26,6.72,36.55,7.93,49.43l-7.1-.61c-5.11-12.17-10.63-24.04-13.86-36.92-21.71-3.11-20.01,14-13.8,28.79,3.16,7.54,7.81,11.8,15.53,14.47,39.62,13.68,77.49-18.17,111.87-32.58,18.6-7.8,14.03-3.6,26.34,7.37,4.19,3.74,13.54,11.32,19.37,9.36,6.76-4.11-6.68-19.76-6.36-21.35.58-2.87,24.45-.56,21.28-8.23-3.78-9.12-33.41-17.77-42.9-19.17-4.07-.6-22.78-2.73-24.25,1.5-3.14,9.08,12.02,20.45-.47,22.29-1.73-.5-5.65-10.65-6.2-12.86-1.62-6.6,2.35-14.72-6.05-14.98-19.04-.59-6.58,27.52-2.38,36.4l-6.98,2.52ZM167.81,61.29l-18.09-15.05c-35.81,14.51-67.69,41.58-108.17,39.83-3.63-.16-7.77-2.24-11.5-.5,3.82,13.5,14.51,25.8,28.94,28.06,12.82,2.01,71.54,2.05,83.28-.83,23.85-5.85,27.72-30.43,25.55-51.51Z"/>
  </g>
</svg>